<svg width="30" height="29" viewBox="0 0 30 29" fill="none" xmlns="http://www.w3.org/2000/svg">
<g clip-path="url(#clip0_738_72)">
<path d="M14.7251 2.61242C18.5966 2.61242 19.0558 2.62692 20.5843 2.697C22.1648 2.7695 23.7924 3.12958 24.944 4.28113C26.1064 5.44354 26.4556 7.05546 26.5281 8.64079C26.5982 10.1693 26.6127 10.6285 26.6127 14.5C26.6127 18.3715 26.5982 18.8307 26.5281 20.3592C26.4568 21.9313 26.0883 23.5746 24.944 24.7189C23.7816 25.8813 22.1708 26.2305 20.5843 26.303C19.0558 26.3731 18.5966 26.3876 14.7251 26.3876C10.8536 26.3876 10.3944 26.3731 8.86589 26.303C7.30593 26.2317 5.64085 25.8547 4.50622 24.7189C3.34985 23.5625 2.9946 21.9349 2.9221 20.3592C2.85201 18.8307 2.83751 18.3715 2.83751 14.5C2.83751 10.6285 2.85201 10.1693 2.9221 8.64079C2.99339 7.07479 3.36556 5.42179 4.50622 4.28113C5.66622 3.12113 7.28418 2.7695 8.86589 2.697C10.3944 2.62692 10.8536 2.61242 14.7251 2.61242ZM14.7251 0C10.7871 0 10.2929 0.0169167 8.74626 0.087C6.50481 0.189708 4.27906 0.813208 2.65868 2.43358C1.03226 4.06 0.414806 6.28092 0.312098 8.52117C0.242014 10.0678 0.225098 10.562 0.225098 14.5C0.225098 18.438 0.242014 18.9322 0.312098 20.4788C0.414806 22.7179 1.04072 24.9497 2.65868 26.5664C4.28389 28.1916 6.50843 28.8103 8.74626 28.913C10.2929 28.9831 10.7871 29 14.7251 29C18.6631 29 19.1573 28.9831 20.7039 28.913C22.9442 28.8103 25.1723 28.1856 26.7915 26.5664C28.4191 24.9388 29.0354 22.7191 29.1381 20.4788C29.2082 18.9322 29.2251 18.438 29.2251 14.5C29.2251 10.562 29.2082 10.0678 29.1381 8.52117C29.0354 6.27971 28.4107 4.05275 26.7915 2.43358C25.1687 0.810792 22.9381 0.1885 20.7039 0.087C19.1573 0.0169167 18.6631 0 14.7251 0Z" fill="white"/>
<path d="M14.725 7.05426C10.6131 7.05426 7.2793 10.3881 7.2793 14.5C7.2793 18.612 10.6131 21.9458 14.725 21.9458C18.837 21.9458 22.1708 18.612 22.1708 14.5C22.1708 10.3881 18.837 7.05426 14.725 7.05426ZM14.725 19.3333C12.0558 19.3333 9.89171 17.1692 9.89171 14.5C9.89171 11.8308 12.0558 9.66668 14.725 9.66668C17.3943 9.66668 19.5584 11.8308 19.5584 14.5C19.5584 17.1692 17.3943 19.3333 14.725 19.3333Z" fill="white"/>
<path d="M22.4656 8.49941C23.4266 8.49941 24.2056 7.72038 24.2056 6.75941C24.2056 5.79843 23.4266 5.01941 22.4656 5.01941C21.5046 5.01941 20.7256 5.79843 20.7256 6.75941C20.7256 7.72038 21.5046 8.49941 22.4656 8.49941Z" fill="white"/>
</g>
<defs>
<clipPath id="clip0_738_72">
<rect width="29" height="29" fill="white" transform="translate(0.225098)"/>
</clipPath>
</defs>
</svg>
