<svg width="30" height="29" viewBox="0 0 30 29" fill="none" xmlns="http://www.w3.org/2000/svg">
<g clip-path="url(#clip0_738_77)">
<path fill-rule="evenodd" clip-rule="evenodd" d="M14.7251 0C6.71747 0 0.225098 6.49238 0.225098 14.5C0.225098 22.5076 6.71747 29 14.7251 29C22.7327 29 29.2251 22.5076 29.2251 14.5C29.2251 6.49238 22.7327 0 14.7251 0ZM21.4458 9.86121C21.2283 12.1534 20.2834 17.7178 19.8037 20.2855C19.6007 21.373 19.1996 21.7367 18.8129 21.7717C17.9707 21.8491 17.3315 21.2147 16.5158 20.6806C15.2398 19.8445 14.5185 19.3237 13.2799 18.5068C11.8481 17.5631 12.7761 17.0448 13.5917 16.1977C13.8056 15.9754 17.5151 12.6005 17.5876 12.2948C17.5961 12.2561 17.6058 12.1135 17.52 12.0386C17.4342 11.9637 17.3097 11.9891 17.2203 12.0096C17.0922 12.0386 15.0538 13.3859 11.1037 16.0515C10.5249 16.449 10.0005 16.6424 9.53047 16.6327C9.01331 16.6218 8.01764 16.3403 7.27693 16.0986C6.36947 15.8038 5.64689 15.6467 5.70972 15.1465C5.74235 14.8855 6.10122 14.6184 6.78756 14.3453C11.0143 12.5038 13.8333 11.2895 15.2435 10.7022C19.2708 9.02746 20.107 8.73625 20.6532 8.72658C21.3371 8.71692 21.5014 9.28121 21.4458 9.86121Z" fill="white"/>
</g>
<defs>
<clipPath id="clip0_738_77">
<rect width="29" height="29" fill="white" transform="translate(0.225098)"/>
</clipPath>
</defs>
</svg>
