<svg width="29" height="27" viewBox="0 0 29 27" fill="none" xmlns="http://www.w3.org/2000/svg">
<path d="M21.75 6.74719C21.75 4.95772 20.9862 3.24155 19.6265 1.9762C18.2669 0.710862 16.4228 0 14.5 0C12.5772 0 10.7331 0.710862 9.37348 1.9762C8.01384 3.24155 7.25 4.95772 7.25 6.74719H0V23.6151C0 24.5099 0.381919 25.368 1.06174 26.0006C1.74156 26.6333 2.66359 26.9887 3.625 26.9887H25.375C26.3364 26.9887 27.2584 26.6333 27.9383 26.0006C28.6181 25.368 29 24.5099 29 23.6151V6.74719H21.75ZM14.5 2.24906C15.7819 2.24906 17.0113 2.72297 17.9177 3.56653C18.8241 4.41009 19.3333 5.55421 19.3333 6.74719H9.66667C9.66667 5.55421 10.1759 4.41009 11.0823 3.56653C11.9887 2.72297 13.2181 2.24906 14.5 2.24906ZM26.5833 23.6151C26.5833 23.9134 26.456 24.1994 26.2294 24.4103C26.0028 24.6212 25.6955 24.7397 25.375 24.7397H3.625C3.30453 24.7397 2.99719 24.6212 2.77058 24.4103C2.54397 24.1994 2.41667 23.9134 2.41667 23.6151V8.99625H7.25V11.2453H9.66667V8.99625H19.3333V11.2453H21.75V8.99625H26.5833V23.6151Z" fill="white"/>
</svg>
