<svg width="32" height="33" viewBox="0 0 32 33" fill="none" xmlns="http://www.w3.org/2000/svg">
<path d="M16 2.40033C8.26875 2.40033 2 8.66908 2 16.4003C2 24.1316 8.26875 30.4003 16 30.4003C23.7313 30.4003 30 24.1316 30 16.4003C30 8.66908 23.7313 2.40033 16 2.40033ZM21.1688 21.7191L19.1063 21.7097L16 18.0066L12.8969 21.7066L10.8313 21.716C10.6938 21.716 10.5813 21.6066 10.5813 21.466C10.5813 21.4066 10.6031 21.3503 10.6406 21.3035L14.7063 16.4597L10.6406 11.6191C10.6029 11.5733 10.5819 11.5159 10.5813 11.4566C10.5813 11.3191 10.6938 11.2066 10.8313 11.2066L12.8969 11.216L16 14.9191L19.1031 11.2191L21.1656 11.2097C21.3031 11.2097 21.4156 11.3191 21.4156 11.4597C21.4156 11.5191 21.3938 11.5753 21.3563 11.6222L17.2969 16.4628L21.3594 21.3066C21.3969 21.3535 21.4188 21.4097 21.4188 21.4691C21.4188 21.6066 21.3063 21.7191 21.1688 21.7191Z" fill="black"/>
</svg>
