<svg width="60" height="60" viewBox="0 0 60 60" fill="none" xmlns="http://www.w3.org/2000/svg">
<path d="M54.3223 9.66943H6.38477C5.36494 9.66943 4.54102 10.4934 4.54102 11.5132V48.3882C4.54102 49.408 5.36494 50.2319 6.38477 50.2319H54.3223C55.3421 50.2319 56.166 49.408 56.166 48.3882V11.5132C56.166 10.4934 55.3421 9.66943 54.3223 9.66943ZM52.0176 16.0534V46.0835H8.68945V16.0534L7.09922 14.8146L9.36357 11.905L11.8296 13.8236H48.8832L51.3492 11.905L53.6136 14.8146L52.0176 16.0534ZM48.8832 13.8179L30.3535 28.2222L11.8238 13.8179L9.35781 11.8992L7.09346 14.8089L8.68369 16.0477L28.3657 31.3508C28.9317 31.7905 29.6281 32.0292 30.3449 32.0292C31.0616 32.0292 31.758 31.7905 32.324 31.3508L52.0176 16.0534L53.6078 14.8146L51.3435 11.905L48.8832 13.8179Z" fill="black"/>
</svg>
