<svg width="309" height="62" viewBox="0 0 309 62" fill="none" xmlns="http://www.w3.org/2000/svg">
<mask id="path-1-outside-1_135_961" maskUnits="userSpaceOnUse" x="0" y="0" width="309" height="62" fill="black">
<rect fill="white" width="309" height="62"/>
<path d="M16.256 46.64C13.3973 46.64 10.6667 46.1707 8.064 45.232C5.46133 44.2933 3.22133 42.9067 1.344 41.072L4.416 35.504C6.42133 37.1253 8.384 38.32 10.304 39.088C12.2667 39.856 14.144 40.24 15.936 40.24C17.6 40.24 18.9227 39.9413 19.904 39.344C20.928 38.7467 21.44 37.8507 21.44 36.656C21.44 35.8453 21.1627 35.2267 20.608 34.8C20.0533 34.3307 19.2427 33.9253 18.176 33.584C17.152 33.2427 15.8933 32.8587 14.4 32.432C11.9253 31.6213 9.856 30.832 8.192 30.064C6.528 29.296 5.26933 28.336 4.416 27.184C3.60533 25.9893 3.2 24.4747 3.2 22.64C3.2 20.4213 3.75467 18.5227 4.864 16.944C6.016 15.3227 7.59467 14.064 9.6 13.168C11.648 12.272 14.0373 11.824 16.768 11.824C19.1573 11.824 21.4187 12.208 23.552 12.976C25.6853 13.7013 27.6267 14.896 29.376 16.56L25.92 22C24.2133 20.6773 22.592 19.7173 21.056 19.12C19.52 18.48 17.9627 18.16 16.384 18.16C15.488 18.16 14.6347 18.2667 13.824 18.48C13.056 18.6933 12.416 19.056 11.904 19.568C11.4347 20.0373 11.2 20.72 11.2 21.616C11.2 22.4267 11.4133 23.0667 11.84 23.536C12.3093 23.9627 12.992 24.3467 13.888 24.688C14.8267 25.0293 15.9573 25.4133 17.28 25.84C19.968 26.608 22.2293 27.3973 24.064 28.208C25.9413 29.0187 27.3493 30.0213 28.288 31.216C29.2267 32.368 29.696 33.968 29.696 36.016C29.696 39.344 28.48 41.9467 26.048 43.824C23.616 45.7013 20.352 46.64 16.256 46.64ZM35.358 52.528C36.126 52.6987 36.83 52.848 37.47 52.976C38.1527 53.104 38.7287 53.168 39.198 53.168C40.0087 53.168 40.67 52.9547 41.182 52.528C41.7367 52.144 42.27 51.4187 42.782 50.352C43.294 49.328 43.8273 47.8773 44.382 46L31.134 12.464H40.03L49.054 37.232L56.99 12.464H65.182L51.102 52.656C50.59 54.1493 49.8007 55.4933 48.734 56.688C47.71 57.9253 46.4087 58.8853 44.83 59.568C43.294 60.2933 41.566 60.656 39.646 60.656C38.9633 60.656 38.2807 60.592 37.598 60.464C36.9153 60.3787 36.1687 60.208 35.358 59.952V52.528ZM121.938 46H113.362V27.184C113.362 24.5387 112.892 22.5973 111.954 21.36C111.058 20.08 109.799 19.44 108.178 19.44C106.514 19.44 104.914 20.1013 103.378 21.424C101.884 22.704 100.818 24.3893 100.178 26.48V46H91.6015V27.184C91.6015 24.496 91.1322 22.5333 90.1935 21.296C89.2975 20.0587 88.0388 19.44 86.4175 19.44C84.7535 19.44 83.1535 20.08 81.6175 21.36C80.1242 22.64 79.0575 24.3253 78.4175 26.416V46H69.8415V12.464H77.5855V18.672C78.8655 16.496 80.5722 14.832 82.7055 13.68C84.8388 12.4853 87.2922 11.888 90.0655 11.888C92.8388 11.888 94.9935 12.5707 96.5295 13.936C98.1082 15.3013 99.1108 16.9867 99.5375 18.992C100.903 16.688 102.631 14.9387 104.722 13.744C106.855 12.5067 109.244 11.888 111.89 11.888C113.98 11.888 115.666 12.272 116.946 13.04C118.268 13.7653 119.292 14.768 120.018 16.048C120.743 17.2853 121.234 18.6933 121.49 20.272C121.788 21.8507 121.938 23.4507 121.938 25.072V46ZM181.5 46H172.924V27.184C172.924 24.5387 172.455 22.5973 171.516 21.36C170.62 20.08 169.361 19.44 167.74 19.44C166.076 19.44 164.476 20.1013 162.94 21.424C161.447 22.704 160.38 24.3893 159.74 26.48V46H151.164V27.184C151.164 24.496 150.695 22.5333 149.756 21.296C148.86 20.0587 147.601 19.44 145.98 19.44C144.316 19.44 142.716 20.08 141.18 21.36C139.687 22.64 138.62 24.3253 137.98 26.416V46H129.404V12.464H137.148V18.672C138.428 16.496 140.135 14.832 142.268 13.68C144.401 12.4853 146.855 11.888 149.628 11.888C152.401 11.888 154.556 12.5707 156.092 13.936C157.671 15.3013 158.673 16.9867 159.1 18.992C160.465 16.688 162.193 14.9387 164.284 13.744C166.417 12.5067 168.807 11.888 171.452 11.888C173.543 11.888 175.228 12.272 176.508 13.04C177.831 13.7653 178.855 14.768 179.58 16.048C180.305 17.2853 180.796 18.6933 181.052 20.272C181.351 21.8507 181.5 23.4507 181.5 25.072V46ZM204.519 46.64C201.831 46.64 199.399 46.192 197.223 45.296C195.047 44.3573 193.191 43.0987 191.655 41.52C190.119 39.8987 188.924 38.064 188.071 36.016C187.26 33.9253 186.855 31.728 186.855 29.424C186.855 26.224 187.559 23.3013 188.967 20.656C190.417 18.0107 192.465 15.8987 195.111 14.32C197.799 12.6987 200.956 11.888 204.583 11.888C208.252 11.888 211.388 12.6987 213.991 14.32C216.593 15.8987 218.577 18.0107 219.943 20.656C221.351 23.2587 222.055 26.0747 222.055 29.104C222.055 29.616 222.033 30.1493 221.991 30.704C221.948 31.216 221.905 31.6427 221.863 31.984H195.943C196.113 33.6907 196.604 35.184 197.415 36.464C198.268 37.744 199.335 38.7253 200.615 39.408C201.937 40.048 203.345 40.368 204.839 40.368C206.545 40.368 208.145 39.9627 209.639 39.152C211.175 38.2987 212.22 37.1893 212.775 35.824L220.135 37.872C219.324 39.5787 218.151 41.0933 216.615 42.416C215.121 43.7387 213.351 44.784 211.303 45.552C209.255 46.2773 206.993 46.64 204.519 46.64ZM195.751 26.544H213.287C213.116 24.8373 212.625 23.3653 211.815 22.128C211.047 20.848 210.023 19.8667 208.743 19.184C207.463 18.4587 206.033 18.096 204.455 18.096C202.919 18.096 201.511 18.4587 200.231 19.184C198.993 19.8667 197.969 20.848 197.159 22.128C196.391 23.3653 195.921 24.8373 195.751 26.544ZM247.063 44.272C246.337 44.5707 245.463 44.912 244.439 45.296C243.415 45.68 242.305 45.9787 241.111 46.192C239.959 46.448 238.785 46.576 237.591 46.576C236.012 46.576 234.561 46.2987 233.239 45.744C231.916 45.1893 230.849 44.3147 230.039 43.12C229.271 41.8827 228.887 40.2827 228.887 38.32V19.056H224.471V12.464H228.887V1.584H237.463V12.464H244.503V19.056H237.463V35.44C237.505 36.592 237.825 37.424 238.423 37.936C239.02 38.448 239.767 38.704 240.663 38.704C241.559 38.704 242.433 38.5547 243.287 38.256C244.14 37.9573 244.823 37.7013 245.335 37.488L247.063 44.272ZM271.497 19.888C268.894 19.888 266.569 20.4 264.521 21.424C262.473 22.4053 261.001 23.8347 260.105 25.712V46H251.529V12.464H259.401V19.632C260.596 17.328 262.11 15.5147 263.945 14.192C265.78 12.8693 267.721 12.144 269.769 12.016C270.238 12.016 270.601 12.016 270.857 12.016C271.113 12.016 271.326 12.0373 271.497 12.08V19.888ZM276.983 52.528C277.751 52.6987 278.455 52.848 279.095 52.976C279.778 53.104 280.354 53.168 280.823 53.168C281.634 53.168 282.295 52.9547 282.807 52.528C283.362 52.144 283.895 51.4187 284.407 50.352C284.919 49.328 285.452 47.8773 286.007 46L272.759 12.464H281.655L290.679 37.232L298.615 12.464H306.807L292.727 52.656C292.215 54.1493 291.426 55.4933 290.359 56.688C289.335 57.9253 288.034 58.8853 286.455 59.568C284.919 60.2933 283.191 60.656 281.271 60.656C280.588 60.656 279.906 60.592 279.223 60.464C278.54 60.3787 277.794 60.208 276.983 59.952V52.528Z"/>
</mask>
<path d="M8.064 45.232L7.72473 46.1727L8.064 45.232ZM1.344 41.072L0.468422 40.5889L0.100782 41.2553L0.645067 41.7872L1.344 41.072ZM4.416 35.504L5.04472 34.7264L4.11684 33.9762L3.54042 35.0209L4.416 35.504ZM10.304 39.088L9.9326 40.0165L9.9396 40.0192L10.304 39.088ZM19.904 39.344L19.4001 38.4802L19.392 38.4849L19.3841 38.4898L19.904 39.344ZM20.608 34.8L19.9621 35.5634L19.9798 35.5784L19.9983 35.5926L20.608 34.8ZM18.176 33.584L17.8597 34.5328L17.8712 34.5364L18.176 33.584ZM14.4 32.432L14.0887 33.3823L14.1069 33.3883L14.1253 33.3935L14.4 32.432ZM8.192 30.064L7.77294 30.972L8.192 30.064ZM4.416 27.184L3.58852 27.7455L3.60014 27.7626L3.61244 27.7792L4.416 27.184ZM4.864 16.944L4.04881 16.3648L4.04581 16.3691L4.864 16.944ZM9.6 13.168L9.19917 12.2518L9.19206 12.255L9.6 13.168ZM23.552 12.976L23.2133 13.9169L23.2217 13.9199L23.2301 13.9228L23.552 12.976ZM29.376 16.56L30.2201 17.0962L30.661 16.4022L30.0652 15.8354L29.376 16.56ZM25.92 22L25.3074 22.7904L26.1753 23.463L26.7641 22.5362L25.92 22ZM21.056 19.12L20.6714 20.0431L20.6824 20.0477L20.6936 20.052L21.056 19.12ZM13.824 18.48L13.5695 17.5128L13.5564 17.5165L13.824 18.48ZM11.904 19.568L11.1969 18.8609H11.1969L11.904 19.568ZM11.84 23.536L11.1001 24.2087L11.1321 24.2439L11.1673 24.2759L11.84 23.536ZM13.888 24.688L13.532 25.6225L13.5391 25.6252L13.5463 25.6278L13.888 24.688ZM17.28 25.84L16.973 26.7917L16.9891 26.7969L17.0053 26.8015L17.28 25.84ZM24.064 28.208L23.6598 29.1227L23.6676 29.1261L24.064 28.208ZM28.288 31.216L27.5017 31.8338L27.5072 31.8408L27.5128 31.8477L28.288 31.216ZM26.048 43.824L25.4369 43.0324L26.048 43.824ZM16.256 45.64C13.5091 45.64 10.8935 45.1894 8.40327 44.2913L7.72473 46.1727C10.4398 47.1519 13.2856 47.64 16.256 47.64V45.64ZM8.40327 44.2913C5.92782 43.3985 3.8124 42.0861 2.04293 40.3568L0.645067 41.7872C2.63027 43.7273 4.99485 45.1881 7.72473 46.1727L8.40327 44.2913ZM2.21958 41.5551L5.29158 35.9871L3.54042 35.0209L0.468422 40.5889L2.21958 41.5551ZM3.78728 36.2816C5.85202 37.951 7.90016 39.2035 9.93261 40.0165L10.6754 38.1595C8.86784 37.4365 6.99064 36.2997 5.04472 34.7264L3.78728 36.2816ZM9.9396 40.0192C11.9983 40.8248 13.9994 41.24 15.936 41.24V39.24C14.2886 39.24 12.535 38.8872 10.6684 38.1568L9.9396 40.0192ZM15.936 41.24C17.7059 41.24 19.2308 40.9244 20.4239 40.1982L19.3841 38.4898C18.6145 38.9582 17.4941 39.24 15.936 39.24V41.24ZM20.4079 40.2078C21.742 39.4295 22.44 38.2029 22.44 36.656H20.44C20.44 37.4984 20.114 38.0638 19.4001 38.4802L20.4079 40.2078ZM22.44 36.656C22.44 35.5905 22.0595 34.6549 21.2177 34.0074L19.9983 35.5926C20.2659 35.7985 20.44 36.1001 20.44 36.656H22.44ZM21.2539 34.0366C20.5598 33.4493 19.6118 32.9935 18.4808 32.6316L17.8712 34.5364C18.8735 34.8572 19.5468 35.2121 19.9621 35.5634L21.2539 34.0366ZM18.4922 32.6353C17.45 32.2879 16.1765 31.8996 14.6747 31.4705L14.1253 33.3935C15.6102 33.8178 16.854 34.1974 17.8598 34.5327L18.4922 32.6353ZM14.7113 31.4817C12.2594 30.6785 10.2288 29.9027 8.61106 29.156L7.77294 30.972C9.48317 31.7613 11.5912 32.5642 14.0887 33.3823L14.7113 31.4817ZM8.61106 29.156C7.05802 28.4393 5.94897 27.5735 5.21956 26.5888L3.61244 27.7792C4.5897 29.0985 5.99798 30.1527 7.77294 30.972L8.61106 29.156ZM5.24348 26.6225C4.5722 25.6332 4.2 24.3286 4.2 22.64H2.2C2.2 24.6208 2.63847 26.3454 3.58852 27.7455L5.24348 26.6225ZM4.2 22.64C4.2 20.5952 4.70828 18.9049 5.68219 17.5189L4.04581 16.3691C2.80105 18.1404 2.2 20.2474 2.2 22.64H4.2ZM5.67918 17.5232C6.71713 16.0624 8.14824 14.9119 10.0079 14.081L9.19206 12.255C7.04109 13.2161 5.31487 14.5829 4.04882 16.3648L5.67918 17.5232ZM10.0008 14.0842C11.8977 13.2543 14.1455 12.824 16.768 12.824V10.824C13.9292 10.824 11.3983 11.2897 9.19918 12.2518L10.0008 14.0842ZM16.768 12.824C19.0481 12.824 21.1943 13.1901 23.2133 13.9169L23.8907 12.0351C21.643 11.2259 19.2665 10.824 16.768 10.824V12.824ZM23.2301 13.9228C25.2167 14.5982 27.0347 15.7131 28.6868 17.2846L30.0652 15.8354C28.2186 14.0789 26.154 12.8044 23.8739 12.0292L23.2301 13.9228ZM28.5319 16.0238L25.0759 21.4638L26.7641 22.5362L30.2201 17.0962L28.5319 16.0238ZM26.5326 21.2096C24.7719 19.8451 23.067 18.8291 21.4184 18.188L20.6936 20.052C22.117 20.6056 23.6547 21.5096 25.3074 22.7904L26.5326 21.2096ZM21.4406 18.1969C19.7894 17.5089 18.1018 17.16 16.384 17.16V19.16C17.8236 19.16 19.2506 19.4511 20.6714 20.0431L21.4406 18.1969ZM16.384 17.16C15.408 17.16 14.4687 17.2763 13.5695 17.5129L14.0785 19.4471C14.8006 19.257 15.568 19.16 16.384 19.16V17.16ZM13.5564 17.5165C12.6394 17.7712 11.8428 18.215 11.1969 18.8609L12.6111 20.2751C12.9892 19.897 13.4726 19.6155 14.0916 19.4435L13.5564 17.5165ZM11.1969 18.8609C10.4819 19.5759 10.2 20.5502 10.2 21.616H12.2C12.2 20.8898 12.3875 20.4987 12.6111 20.2751L11.1969 18.8609ZM10.2 21.616C10.2 22.6039 10.4635 23.5084 11.1001 24.2087L12.5799 22.8633C12.3632 22.6249 12.2 22.2494 12.2 21.616H10.2ZM11.1673 24.2759C11.7639 24.8182 12.573 25.2572 13.532 25.6225L14.244 23.7535C13.411 23.4362 12.8548 23.1071 12.5127 22.7961L11.1673 24.2759ZM13.5463 25.6278C14.4999 25.9746 15.6428 26.3626 16.973 26.7917L17.587 24.8883C16.2719 24.4641 15.1534 24.0841 14.2297 23.7482L13.5463 25.6278ZM17.0053 26.8015C19.6649 27.5614 21.8799 28.3362 23.6598 29.1227L24.4682 27.2933C22.5787 26.4585 20.2711 25.6546 17.5547 24.8785L17.0053 26.8015ZM23.6676 29.1261C25.4427 29.8926 26.6954 30.8076 27.5017 31.8338L29.0743 30.5982C28.0033 29.235 26.44 28.1447 24.4604 27.2899L23.6676 29.1261ZM27.5128 31.8477C28.2596 32.7642 28.696 34.1118 28.696 36.016H30.696C30.696 33.8242 30.1938 31.9718 29.0632 30.5843L27.5128 31.8477ZM28.696 36.016C28.696 39.0639 27.601 41.3619 25.4369 43.0324L26.6591 44.6156C29.359 42.5314 30.696 39.6241 30.696 36.016H28.696ZM25.4369 43.0324C23.2304 44.7357 20.2043 45.64 16.256 45.64V47.64C20.4997 47.64 24.0016 46.6669 26.6591 44.6156L25.4369 43.0324ZM35.358 52.528L35.5749 51.5518L34.358 51.2814V52.528H35.358ZM37.47 52.976L37.2739 53.9566L37.2857 53.9589L37.47 52.976ZM41.182 52.528L40.6128 51.7058L40.5761 51.7312L40.5418 51.7598L41.182 52.528ZM42.782 50.352L41.8876 49.9048L41.884 49.912L41.8805 49.9193L42.782 50.352ZM44.382 46L45.341 46.2833L45.4386 45.953L45.3121 45.6326L44.382 46ZM31.134 12.464V11.464H29.6638L30.2039 12.8314L31.134 12.464ZM40.03 12.464L40.9696 12.1217L40.73 11.464H40.03V12.464ZM49.054 37.232L48.1144 37.5743L49.1147 40.3198L50.0063 37.5371L49.054 37.232ZM56.99 12.464V11.464H56.2603L56.0377 12.1589L56.99 12.464ZM65.182 12.464L66.1258 12.7946L66.5919 11.464H65.182V12.464ZM51.102 52.656L50.1582 52.3254L50.1561 52.3317L51.102 52.656ZM48.734 56.688L47.9881 56.022L47.9756 56.036L47.9636 56.0504L48.734 56.688ZM44.83 59.568L44.4331 58.6501L44.4179 58.6567L44.403 58.6637L44.83 59.568ZM37.598 60.464L37.7823 59.4811L37.7523 59.4755L37.722 59.4717L37.598 60.464ZM35.358 59.952H34.358V60.6849L35.0569 60.9056L35.358 59.952ZM35.1411 53.5042C35.9146 53.6761 36.6257 53.8269 37.2739 53.9566L37.6661 51.9954C37.0343 51.8691 36.3374 51.7212 35.5749 51.5518L35.1411 53.5042ZM37.2857 53.9589C38.0032 54.0934 38.6451 54.168 39.198 54.168V52.168C38.8122 52.168 38.3021 52.1146 37.6543 51.9931L37.2857 53.9589ZM39.198 54.168C40.1901 54.168 41.0939 53.9032 41.8222 53.2962L40.5418 51.7598C40.2461 52.0062 39.8273 52.168 39.198 52.168V54.168ZM41.7512 53.3502C42.5194 52.8184 43.1455 51.9057 43.6835 50.7847L41.8805 49.9193C41.3945 50.9317 40.954 51.4696 40.6128 51.7058L41.7512 53.3502ZM43.6764 50.7992C44.2268 49.6985 44.7796 48.1835 45.341 46.2833L43.423 45.7167C42.8751 47.5712 42.3612 48.9575 41.8876 49.9048L43.6764 50.7992ZM45.3121 45.6326L32.0641 12.0966L30.2039 12.8314L43.4519 46.3674L45.3121 45.6326ZM31.134 13.464H40.03V11.464H31.134V13.464ZM39.0904 12.8063L48.1144 37.5743L49.9936 36.8897L40.9696 12.1217L39.0904 12.8063ZM50.0063 37.5371L57.9423 12.7691L56.0377 12.1589L48.1017 36.9269L50.0063 37.5371ZM56.99 13.464H65.182V11.464H56.99V13.464ZM64.2382 12.1334L50.1582 52.3254L52.0458 52.9866L66.1258 12.7946L64.2382 12.1334ZM50.1561 52.3317C49.6879 53.6971 48.9673 54.9253 47.9881 56.022L49.4799 57.354C50.6341 56.0614 51.4921 54.6016 52.0479 52.9803L50.1561 52.3317ZM47.9636 56.0504C47.0473 57.1576 45.8774 58.0256 44.4331 58.6501L45.2269 60.4859C46.9399 59.7451 48.3727 58.693 49.5044 57.3256L47.9636 56.0504ZM44.403 58.6637C43.0169 59.3183 41.4377 59.656 39.646 59.656V61.656C41.6943 61.656 43.5711 61.2684 45.257 60.4723L44.403 58.6637ZM39.646 59.656C39.0262 59.656 38.4053 59.5979 37.7823 59.4811L37.4137 61.4469C38.1561 61.5861 38.9004 61.656 39.646 61.656V59.656ZM37.722 59.4717C37.1115 59.3954 36.425 59.2403 35.6591 58.9984L35.0569 60.9056C35.9124 61.1757 36.7191 61.3619 37.474 61.4563L37.722 59.4717ZM36.358 59.952V52.528H34.358V59.952H36.358ZM121.938 46V47H122.938V46H121.938ZM113.362 46H112.362V47H113.362V46ZM111.954 21.36L111.134 21.9335L111.145 21.9491L111.157 21.9644L111.954 21.36ZM103.378 21.424L104.028 22.1833L104.03 22.1818L103.378 21.424ZM100.178 26.48L99.2213 26.1873L99.1775 26.3304V26.48H100.178ZM100.178 46V47H101.178V46H100.178ZM91.6015 46H90.6015V47H91.6015V46ZM90.1935 21.296L89.3836 21.8825L89.3901 21.8915L89.3968 21.9004L90.1935 21.296ZM81.6175 21.36L80.9773 20.5917L80.9667 20.6007L81.6175 21.36ZM78.4175 26.416L77.4613 26.1233L77.4175 26.2664V26.416H78.4175ZM78.4175 46V47H79.4175V46H78.4175ZM69.8415 46H68.8415V47H69.8415V46ZM69.8415 12.464V11.464H68.8415V12.464H69.8415ZM77.5855 12.464H78.5855V11.464H77.5855V12.464ZM77.5855 18.672H76.5855V22.3443L78.4474 19.179L77.5855 18.672ZM82.7055 13.68L83.1806 14.5599L83.1874 14.5563L83.1941 14.5525L82.7055 13.68ZM96.5295 13.936L95.8651 14.6835L95.8754 14.6924L96.5295 13.936ZM99.5375 18.992L98.5594 19.2001L99.0923 21.7048L100.398 19.5018L99.5375 18.992ZM104.721 13.744L105.218 14.6123L105.223 14.609L104.721 13.744ZM116.946 13.04L116.431 13.8975L116.448 13.9075L116.465 13.9168L116.946 13.04ZM120.018 16.048L119.147 16.541L119.151 16.5474L119.155 16.5537L120.018 16.048ZM121.49 20.272L120.502 20.4321L120.504 20.445L120.507 20.4579L121.49 20.272ZM121.938 45H113.362V47H121.938V45ZM114.362 46V27.184H112.362V46H114.362ZM114.362 27.184C114.362 24.459 113.885 22.2518 112.75 20.7556L111.157 21.9644C111.899 22.9428 112.362 24.6184 112.362 27.184H114.362ZM112.773 20.7865C111.681 19.2275 110.111 18.44 108.178 18.44V20.44C109.487 20.44 110.434 20.9325 111.134 21.9335L112.773 20.7865ZM108.178 18.44C106.225 18.44 104.401 19.2228 102.725 20.6662L104.03 22.1818C105.426 20.9799 106.802 20.44 108.178 20.44V18.44ZM102.727 20.6647C101.074 22.0817 99.9104 23.9362 99.2213 26.1873L101.134 26.7727C101.725 24.8425 102.695 23.3263 104.028 22.1833L102.727 20.6647ZM99.1775 26.48V46H101.178V26.48H99.1775ZM100.178 45H91.6015V47H100.178V45ZM92.6015 46V27.184H90.6015V46H92.6015ZM92.6015 27.184C92.6015 24.4207 92.1268 22.1899 90.9902 20.6916L89.3968 21.9004C90.1375 22.8768 90.6015 24.5713 90.6015 27.184H92.6015ZM91.0034 20.7095C89.9062 19.1943 88.3364 18.44 86.4175 18.44V20.44C87.7412 20.44 88.6888 20.923 89.3836 21.8825L91.0034 20.7095ZM86.4175 18.44C84.4747 18.44 82.6553 19.1935 80.9773 20.5918L82.2577 22.1282C83.6517 20.9665 85.0323 20.44 86.4175 20.44V18.44ZM80.9667 20.6007C79.3136 22.0177 78.1504 23.8722 77.4613 26.1233L79.3737 26.7087C79.9646 24.7785 80.9347 23.2623 82.2683 22.1193L80.9667 20.6007ZM77.4175 26.416V46H79.4175V26.416H77.4175ZM78.4175 45H69.8415V47H78.4175V45ZM70.8415 46V12.464H68.8415V46H70.8415ZM69.8415 13.464H77.5855V11.464H69.8415V13.464ZM76.5855 12.464V18.672H78.5855V12.464H76.5855ZM78.4474 19.179C79.6389 17.1535 81.2146 15.6215 83.1806 14.5599L82.2304 12.8001C79.9297 14.0424 78.0921 15.8385 76.7236 18.165L78.4474 19.179ZM83.1941 14.5525C85.159 13.4521 87.4399 12.888 90.0655 12.888V10.888C87.1444 10.888 84.5186 11.5185 82.2169 12.8075L83.1941 14.5525ZM90.0655 12.888C92.6805 12.888 94.5679 13.5303 95.8651 14.6834L97.1939 13.1886C95.4191 11.611 92.9972 10.888 90.0655 10.888V12.888ZM95.8754 14.6924C97.2924 15.9179 98.179 17.4121 98.5594 19.2001L100.516 18.7839C100.043 16.5613 98.924 14.6848 97.1837 13.1796L95.8754 14.6924ZM100.398 19.5018C101.685 17.3297 103.294 15.7116 105.218 14.6122L104.225 12.8758C101.968 14.1657 100.121 16.0463 98.6772 18.4822L100.398 19.5018ZM105.223 14.609C107.193 13.4665 109.407 12.888 111.89 12.888V10.888C109.081 10.888 106.517 11.5468 104.22 12.879L105.223 14.609ZM111.89 12.888C113.868 12.888 115.357 13.2529 116.431 13.8975L117.46 12.1825C115.974 11.2911 114.092 10.888 111.89 10.888V12.888ZM116.465 13.9168C117.629 14.5552 118.516 15.4269 119.147 16.541L120.888 15.555C120.068 14.1091 118.908 12.9754 117.426 12.1632L116.465 13.9168ZM119.155 16.5537C119.811 17.6729 120.264 18.9613 120.502 20.4321L122.477 20.1119C122.203 18.4253 121.675 16.8977 120.88 15.5423L119.155 16.5537ZM120.507 20.4579C120.794 21.9747 120.938 23.5125 120.938 25.072H122.938C122.938 23.3889 122.782 21.7266 122.472 20.0861L120.507 20.4579ZM120.938 25.072V46H122.938V25.072H120.938ZM181.5 46V47H182.5V46H181.5ZM172.924 46H171.924V47H172.924V46ZM171.516 21.36L170.697 21.9335L170.708 21.9491L170.719 21.9644L171.516 21.36ZM162.94 21.424L163.591 22.1833L163.593 22.1818L162.94 21.424ZM159.74 26.48L158.784 26.1873L158.74 26.3304V26.48H159.74ZM159.74 46V47H160.74V46H159.74ZM151.164 46H150.164V47H151.164V46ZM149.756 21.296L148.946 21.8825L148.953 21.8915L148.959 21.9004L149.756 21.296ZM141.18 21.36L140.54 20.5917L140.529 20.6007L141.18 21.36ZM137.98 26.416L137.024 26.1233L136.98 26.2664V26.416H137.98ZM137.98 46V47H138.98V46H137.98ZM129.404 46H128.404V47H129.404V46ZM129.404 12.464V11.464H128.404V12.464H129.404ZM137.148 12.464H138.148V11.464H137.148V12.464ZM137.148 18.672H136.148V22.3443L138.01 19.179L137.148 18.672ZM142.268 13.68L142.743 14.5599L142.75 14.5563L142.757 14.5525L142.268 13.68ZM156.092 13.936L155.428 14.6835L155.438 14.6924L156.092 13.936ZM159.1 18.992L158.122 19.2001L158.655 21.7048L159.96 19.5018L159.1 18.992ZM164.284 13.744L164.78 14.6123L164.786 14.609L164.284 13.744ZM176.508 13.04L175.994 13.8975L176.01 13.9075L176.027 13.9168L176.508 13.04ZM179.58 16.048L178.71 16.541L178.714 16.5474L178.717 16.5537L179.58 16.048ZM181.052 20.272L180.065 20.4321L180.067 20.445L180.069 20.4579L181.052 20.272ZM181.5 45H172.924V47H181.5V45ZM173.924 46V27.184H171.924V46H173.924ZM173.924 27.184C173.924 24.459 173.448 22.2518 172.313 20.7556L170.719 21.9644C171.462 22.9428 171.924 24.6184 171.924 27.184H173.924ZM172.335 20.7865C171.244 19.2275 169.673 18.44 167.74 18.44V20.44C169.05 20.44 169.996 20.9325 170.697 21.9335L172.335 20.7865ZM167.74 18.44C165.787 18.44 163.964 19.2228 162.287 20.6662L163.593 22.1818C164.988 20.9799 166.365 20.44 167.74 20.44V18.44ZM162.289 20.6647C160.636 22.0817 159.473 23.9362 158.784 26.1873L160.696 26.7727C161.287 24.8425 162.257 23.3263 163.591 22.1833L162.289 20.6647ZM158.74 26.48V46H160.74V26.48H158.74ZM159.74 45H151.164V47H159.74V45ZM152.164 46V27.184H150.164V46H152.164ZM152.164 27.184C152.164 24.4207 151.689 22.1899 150.553 20.6916L148.959 21.9004C149.7 22.8768 150.164 24.5713 150.164 27.184H152.164ZM150.566 20.7095C149.469 19.1943 147.899 18.44 145.98 18.44V20.44C147.304 20.44 148.251 20.923 148.946 21.8825L150.566 20.7095ZM145.98 18.44C144.037 18.44 142.218 19.1935 140.54 20.5918L141.82 22.1282C143.214 20.9665 144.595 20.44 145.98 20.44V18.44ZM140.529 20.6007C138.876 22.0177 137.713 23.8722 137.024 26.1233L138.936 26.7087C139.527 24.7785 140.497 23.2623 141.831 22.1193L140.529 20.6007ZM136.98 26.416V46H138.98V26.416H136.98ZM137.98 45H129.404V47H137.98V45ZM130.404 46V12.464H128.404V46H130.404ZM129.404 13.464H137.148V11.464H129.404V13.464ZM136.148 12.464V18.672H138.148V12.464H136.148ZM138.01 19.179C139.201 17.1535 140.777 15.6215 142.743 14.5599L141.793 12.8001C139.492 14.0424 137.655 15.8385 136.286 18.165L138.01 19.179ZM142.757 14.5525C144.722 13.4521 147.002 12.888 149.628 12.888V10.888C146.707 10.888 144.081 11.5185 141.779 12.8075L142.757 14.5525ZM149.628 12.888C152.243 12.888 154.13 13.5303 155.428 14.6834L156.756 13.1886C154.982 11.611 152.56 10.888 149.628 10.888V12.888ZM155.438 14.6924C156.855 15.9179 157.741 17.4121 158.122 19.2001L160.078 18.7839C159.605 16.5613 158.486 14.6848 156.746 13.1796L155.438 14.6924ZM159.96 19.5018C161.247 17.3297 162.856 15.7116 164.78 14.6122L163.788 12.8758C161.53 14.1657 159.683 16.0463 158.24 18.4822L159.96 19.5018ZM164.786 14.609C166.756 13.4665 168.97 12.888 171.452 12.888V10.888C168.644 10.888 166.079 11.5468 163.782 12.879L164.786 14.609ZM171.452 12.888C173.431 12.888 174.919 13.2529 175.994 13.8975L177.022 12.1825C175.537 11.2911 173.655 10.888 171.452 10.888V12.888ZM176.027 13.9168C177.191 14.5552 178.079 15.4269 178.71 16.541L180.45 15.555C179.631 14.1091 178.47 12.9754 176.989 12.1632L176.027 13.9168ZM178.717 16.5537C179.373 17.6729 179.826 18.9613 180.065 20.4321L182.039 20.1119C181.766 18.4253 181.237 16.8977 180.443 15.5423L178.717 16.5537ZM180.069 20.4579C180.356 21.9747 180.5 23.5125 180.5 25.072H182.5C182.5 23.3889 182.345 21.7266 182.035 20.0861L180.069 20.4579ZM180.5 25.072V46H182.5V25.072H180.5ZM197.223 45.296L196.826 46.2142L196.834 46.2175L196.842 46.2207L197.223 45.296ZM191.654 41.52L190.928 42.2078L190.938 42.2174L191.654 41.52ZM188.07 36.016L187.138 36.3775L187.143 36.3891L187.147 36.4006L188.07 36.016ZM188.967 20.656L188.09 20.1751L188.084 20.1861L188.967 20.656ZM195.111 14.32L195.623 15.1787L195.627 15.1763L195.111 14.32ZM213.991 14.32L213.462 15.1688L213.472 15.175L213.991 14.32ZM219.943 20.656L219.054 21.1146L219.058 21.1233L219.063 21.1318L219.943 20.656ZM221.991 30.704L222.987 30.787L222.988 30.7807L221.991 30.704ZM221.863 31.984V32.984H222.745L222.855 32.108L221.863 31.984ZM195.943 31.984V30.984H194.838L194.947 32.0835L195.943 31.984ZM197.415 36.464L196.57 36.9991L196.576 37.0089L196.582 37.0187L197.415 36.464ZM200.615 39.408L200.144 40.2904L200.161 40.2996L200.179 40.3082L200.615 39.408ZM209.639 39.152L210.116 40.0309L210.124 40.0262L209.639 39.152ZM212.775 35.824L213.043 34.8606L212.184 34.6216L211.848 35.4476L212.775 35.824ZM220.135 37.872L221.038 38.3011L221.548 37.2273L220.403 36.9086L220.135 37.872ZM216.615 42.416L215.962 41.6582L215.951 41.6674L216.615 42.416ZM211.303 45.552L211.636 46.4946L211.645 46.4916L211.654 46.4883L211.303 45.552ZM195.751 26.544L194.755 26.4445L194.646 27.544H195.751V26.544ZM213.286 26.544V27.544H214.391L214.282 26.4445L213.286 26.544ZM211.814 22.128L210.957 22.6425L210.967 22.6595L210.978 22.676L211.814 22.128ZM208.742 19.184L208.249 20.054L208.261 20.0603L208.272 20.0664L208.742 19.184ZM200.23 19.184L200.714 20.0596L200.724 20.054L200.23 19.184ZM197.159 22.128L196.314 21.5929L196.309 21.6006L197.159 22.128ZM204.518 45.64C201.943 45.64 199.643 45.211 197.603 44.3713L196.842 46.2207C199.154 47.173 201.718 47.64 204.518 47.64V45.64ZM197.619 44.3778C195.554 43.487 193.809 42.3005 192.371 40.8226L190.938 42.2174C192.572 43.8969 194.539 45.2276 196.826 46.2142L197.619 44.3778ZM192.38 40.8323C190.927 39.2985 189.8 37.5664 188.994 35.6314L187.147 36.4006C188.048 38.5616 189.31 40.4988 190.929 42.2077L192.38 40.8323ZM189.003 35.6545C188.238 33.6823 187.855 31.6078 187.855 29.424H185.855C185.855 31.8482 186.282 34.1684 187.138 36.3775L189.003 35.6545ZM187.855 29.424C187.855 26.3764 188.523 23.6168 189.849 21.1258L188.084 20.1861C186.594 22.9859 185.855 26.0716 185.855 29.424H187.855ZM189.843 21.1368C191.206 18.6511 193.127 16.6681 195.623 15.1787L194.598 13.4613C191.803 15.1292 189.628 17.3703 188.09 20.1752L189.843 21.1368ZM195.627 15.1763C198.136 13.6628 201.109 12.888 204.583 12.888V10.888C200.803 10.888 197.461 11.7345 194.594 13.4637L195.627 15.1763ZM204.583 12.888C208.102 12.888 211.047 13.6642 213.462 15.1688L214.519 13.4712C211.729 11.7331 208.402 10.888 204.583 10.888V12.888ZM213.472 15.175C215.921 16.6604 217.775 18.6368 219.054 21.1146L220.831 20.1974C219.379 17.3845 217.266 15.1369 214.509 13.465L213.472 15.175ZM219.063 21.1318C220.39 23.5848 221.055 26.2367 221.055 29.104H223.055C223.055 25.9126 222.311 22.9326 220.822 20.1802L219.063 21.1318ZM221.055 29.104C221.055 29.5883 221.034 30.096 220.993 30.6273L222.988 30.7807C223.032 30.2027 223.055 29.6437 223.055 29.104H221.055ZM220.994 30.621C220.952 31.1252 220.911 31.5371 220.87 31.86L222.855 32.108C222.9 31.7482 222.944 31.3068 222.987 30.787L220.994 30.621ZM221.863 30.984H195.943V32.984H221.863V30.984ZM194.947 32.0835C195.132 33.9245 195.665 35.5711 196.57 36.9991L198.259 35.9289C197.542 34.7969 197.095 33.4569 196.938 31.8845L194.947 32.0835ZM196.582 37.0187C197.522 38.4275 198.709 39.5253 200.144 40.2904L201.085 38.5256C199.96 37.9254 199.014 37.0605 198.247 35.9093L196.582 37.0187ZM200.179 40.3082C201.64 41.015 203.197 41.368 204.839 41.368V39.368C203.493 39.368 202.235 39.081 201.05 38.5078L200.179 40.3082ZM204.839 41.368C206.711 41.368 208.475 40.9214 210.116 40.0309L209.161 38.2731C207.815 39.0039 206.379 39.368 204.839 39.368V41.368ZM210.124 40.0262C211.82 39.0842 213.045 37.8158 213.701 36.2004L211.848 35.4476C211.395 36.5629 210.529 37.5131 209.153 38.2778L210.124 40.0262ZM212.506 36.7874L219.866 38.8354L220.403 36.9086L213.043 34.8606L212.506 36.7874ZM219.231 37.4429C218.485 39.0148 217.4 40.4198 215.962 41.6582L217.267 43.1738C218.901 41.7669 220.163 40.1425 221.038 38.3011L219.231 37.4429ZM215.951 41.6674C214.558 42.9015 212.896 43.8865 210.951 44.6157L211.654 46.4883C213.805 45.6815 215.684 44.5759 217.278 43.1646L215.951 41.6674ZM210.969 44.6094C209.042 45.2919 206.895 45.64 204.518 45.64V47.64C207.091 47.64 209.467 47.2628 211.636 46.4946L210.969 44.6094ZM195.751 27.544H213.286V25.544H195.751V27.544ZM214.282 26.4445C214.097 24.6034 213.563 22.9719 212.651 21.58L210.978 22.676C211.687 23.7588 212.134 25.0713 212.291 26.6435L214.282 26.4445ZM212.672 21.6135C211.814 20.1828 210.658 19.0722 209.213 18.3016L208.272 20.0664C209.387 20.6612 210.279 21.5132 210.957 22.6425L212.672 21.6135ZM209.236 18.314C207.794 17.4972 206.193 17.096 204.454 17.096V19.096C205.873 19.096 207.131 19.4201 208.249 20.054L209.236 18.314ZM204.454 17.096C202.754 17.096 201.175 17.4996 199.737 18.314L200.724 20.054C201.846 19.4177 203.083 19.096 204.454 19.096V17.096ZM199.747 18.3084C198.352 19.0782 197.208 20.1814 196.314 21.5929L198.003 22.6631C198.731 21.5146 199.634 20.6551 200.714 20.0596L199.747 18.3084ZM196.309 21.6006C195.447 22.9887 194.939 24.6128 194.755 26.4445L196.746 26.6435C196.904 25.0618 197.334 23.7419 198.008 22.6554L196.309 21.6006ZM247.062 44.272L247.443 45.1967L248.246 44.8662L248.032 44.0252L247.062 44.272ZM244.439 45.296L244.79 46.2323L244.439 45.296ZM241.111 46.192L240.935 45.2076L240.914 45.2113L240.894 45.2158L241.111 46.192ZM230.038 43.12L229.189 43.6474L229.2 43.6647L229.211 43.6815L230.038 43.12ZM228.887 19.056H229.887V18.056H228.887V19.056ZM224.471 19.056H223.471V20.056H224.471V19.056ZM224.471 12.464V11.464H223.471V12.464H224.471ZM228.887 12.464V13.464H229.887V12.464H228.887ZM228.887 1.584V0.584H227.887V1.584H228.887ZM237.462 1.584H238.462V0.584H237.462V1.584ZM237.462 12.464H236.462V13.464H237.462V12.464ZM244.503 12.464H245.503V11.464H244.503V12.464ZM244.503 19.056V20.056H245.503V19.056H244.503ZM237.462 19.056V18.056H236.462V19.056H237.462ZM237.462 35.44H236.462V35.4585L236.463 35.477L237.462 35.44ZM238.423 37.936L237.772 38.6953L238.423 37.936ZM243.286 38.256L242.956 37.3121L243.286 38.256ZM245.335 37.488L246.304 37.2412L246.018 36.1199L244.95 36.5649L245.335 37.488ZM246.682 43.3473C245.969 43.6407 245.105 43.9781 244.087 44.3597L244.79 46.2323C245.82 45.8459 246.705 45.5006 247.443 45.1967L246.682 43.3473ZM244.087 44.3597C243.126 44.7202 242.076 45.0038 240.935 45.2076L241.286 47.1764C242.534 46.9536 243.703 46.6398 244.79 46.2323L244.087 44.3597ZM240.894 45.2158C239.814 45.4558 238.713 45.576 237.59 45.576V47.576C238.857 47.576 240.103 47.4402 241.327 47.1682L240.894 45.2158ZM237.59 45.576C236.131 45.576 234.814 45.3202 233.625 44.8218L232.852 46.6662C234.309 47.2772 235.892 47.576 237.59 47.576V45.576ZM233.625 44.8218C232.483 44.3426 231.569 43.5939 230.866 42.5585L229.211 43.6815C230.13 45.0354 231.349 46.036 232.852 46.6662L233.625 44.8218ZM230.888 42.5926C230.247 41.5597 229.887 40.1591 229.887 38.32H227.887C227.887 40.4062 228.294 42.2057 229.189 43.6474L230.888 42.5926ZM229.887 38.32V19.056H227.887V38.32H229.887ZM228.887 18.056H224.471V20.056H228.887V18.056ZM225.471 19.056V12.464H223.471V19.056H225.471ZM224.471 13.464H228.887V11.464H224.471V13.464ZM229.887 12.464V1.584H227.887V12.464H229.887ZM228.887 2.584H237.462V0.584H228.887V2.584ZM236.462 1.584V12.464H238.462V1.584H236.462ZM237.462 13.464H244.503V11.464H237.462V13.464ZM243.503 12.464V19.056H245.503V12.464H243.503ZM244.503 18.056H237.462V20.056H244.503V18.056ZM236.462 19.056V35.44H238.462V19.056H236.462ZM236.463 35.477C236.511 36.7768 236.88 37.931 237.772 38.6953L239.073 37.1767C238.77 36.917 238.499 36.4072 238.462 35.403L236.463 35.477ZM237.772 38.6953C238.575 39.3841 239.563 39.704 240.663 39.704V37.704C239.97 37.704 239.464 37.5119 239.073 37.1767L237.772 38.6953ZM240.663 39.704C241.672 39.704 242.658 39.5353 243.617 39.1999L242.956 37.3121C242.208 37.574 241.445 37.704 240.663 37.704V39.704ZM243.617 39.1999C244.479 38.8982 245.182 38.635 245.719 38.4111L244.95 36.5649C244.463 36.7677 243.801 37.0164 242.956 37.3121L243.617 39.1999ZM244.365 37.7348L246.093 44.5188L248.032 44.0252L246.304 37.2412L244.365 37.7348ZM271.497 19.888V20.888H272.497V19.888H271.497ZM264.521 21.424L264.953 22.3258L264.961 22.3222L264.968 22.3184L264.521 21.424ZM260.105 25.712L259.203 25.2813L259.105 25.4856V25.712H260.105ZM260.105 46V47H261.105V46H260.105ZM251.529 46H250.529V47H251.529V46ZM251.529 12.464V11.464H250.529V12.464H251.529ZM259.401 12.464H260.401V11.464H259.401V12.464ZM259.401 19.632H258.401L260.289 20.0923L259.401 19.632ZM263.945 14.192L264.53 15.0032L263.945 14.192ZM269.769 12.016V11.016H269.738L269.707 11.0179L269.769 12.016ZM271.497 12.08H272.497V11.2992L271.74 11.1099L271.497 12.08ZM271.497 18.888C268.76 18.888 266.279 19.4272 264.074 20.5296L264.968 22.3184C266.859 21.3728 269.028 20.888 271.497 20.888V18.888ZM264.089 20.5222C261.855 21.5926 260.206 23.1785 259.203 25.2813L261.007 26.1427C261.796 24.4908 263.091 23.2181 264.953 22.3258L264.089 20.5222ZM259.105 25.712V46H261.105V25.712H259.105ZM260.105 45H251.529V47H260.105V45ZM252.529 46V12.464H250.529V46H252.529ZM251.529 13.464H259.401V11.464H251.529V13.464ZM258.401 12.464V19.632H260.401V12.464H258.401ZM260.289 20.0923C261.422 17.9068 262.84 16.2216 264.53 15.0032L263.36 13.3808C261.381 14.8078 259.769 16.7492 258.513 19.1717L260.289 20.0923ZM264.53 15.0032C266.228 13.7792 267.991 13.1291 269.831 13.0141L269.707 11.0179C267.451 11.1589 265.332 11.9595 263.36 13.3808L264.53 15.0032ZM269.769 13.016C269.77 13.016 269.771 13.016 269.772 13.016C269.773 13.016 269.774 13.016 269.775 13.016C269.775 13.016 269.776 13.016 269.777 13.016C269.778 13.016 269.779 13.016 269.78 13.016C269.781 13.016 269.782 13.016 269.783 13.016C269.784 13.016 269.785 13.016 269.785 13.016C269.786 13.016 269.787 13.016 269.788 13.016C269.789 13.016 269.79 13.016 269.791 13.016C269.792 13.016 269.793 13.016 269.794 13.016C269.795 13.016 269.795 13.016 269.796 13.016C269.797 13.016 269.798 13.016 269.799 13.016C269.8 13.016 269.801 13.016 269.802 13.016C269.803 13.016 269.804 13.016 269.805 13.016C269.805 13.016 269.806 13.016 269.807 13.016C269.808 13.016 269.809 13.016 269.81 13.016C269.811 13.016 269.812 13.016 269.813 13.016C269.814 13.016 269.814 13.016 269.815 13.016C269.816 13.016 269.817 13.016 269.818 13.016C269.819 13.016 269.82 13.016 269.821 13.016C269.822 13.016 269.823 13.016 269.824 13.016C269.824 13.016 269.825 13.016 269.826 13.016C269.827 13.016 269.828 13.016 269.829 13.016C269.83 13.016 269.831 13.016 269.832 13.016C269.832 13.016 269.833 13.016 269.834 13.016C269.835 13.016 269.836 13.016 269.837 13.016C269.838 13.016 269.839 13.016 269.84 13.016C269.841 13.016 269.841 13.016 269.842 13.016C269.843 13.016 269.844 13.016 269.845 13.016C269.846 13.016 269.847 13.016 269.848 13.016C269.849 13.016 269.85 13.016 269.85 13.016C269.851 13.016 269.852 13.016 269.853 13.016C269.854 13.016 269.855 13.016 269.856 13.016C269.857 13.016 269.858 13.016 269.858 13.016C269.859 13.016 269.86 13.016 269.861 13.016C269.862 13.016 269.863 13.016 269.864 13.016C269.865 13.016 269.866 13.016 269.866 13.016C269.867 13.016 269.868 13.016 269.869 13.016C269.87 13.016 269.871 13.016 269.872 13.016C269.873 13.016 269.874 13.016 269.874 13.016C269.875 13.016 269.876 13.016 269.877 13.016C269.878 13.016 269.879 13.016 269.88 13.016C269.881 13.016 269.881 13.016 269.882 13.016C269.883 13.016 269.884 13.016 269.885 13.016C269.886 13.016 269.887 13.016 269.888 13.016C269.889 13.016 269.889 13.016 269.89 13.016C269.891 13.016 269.892 13.016 269.893 13.016C269.894 13.016 269.895 13.016 269.896 13.016C269.896 13.016 269.897 13.016 269.898 13.016C269.899 13.016 269.9 13.016 269.901 13.016C269.902 13.016 269.903 13.016 269.903 13.016C269.904 13.016 269.905 13.016 269.906 13.016C269.907 13.016 269.908 13.016 269.909 13.016C269.91 13.016 269.91 13.016 269.911 13.016C269.912 13.016 269.913 13.016 269.914 13.016C269.915 13.016 269.916 13.016 269.917 13.016C269.917 13.016 269.918 13.016 269.919 13.016C269.92 13.016 269.921 13.016 269.922 13.016C269.923 13.016 269.924 13.016 269.924 13.016C269.925 13.016 269.926 13.016 269.927 13.016C269.928 13.016 269.929 13.016 269.93 13.016C269.93 13.016 269.931 13.016 269.932 13.016C269.933 13.016 269.934 13.016 269.935 13.016C269.936 13.016 269.937 13.016 269.937 13.016C269.938 13.016 269.939 13.016 269.94 13.016C269.941 13.016 269.942 13.016 269.943 13.016C269.943 13.016 269.944 13.016 269.945 13.016C269.946 13.016 269.947 13.016 269.948 13.016C269.949 13.016 269.949 13.016 269.95 13.016C269.951 13.016 269.952 13.016 269.953 13.016C269.954 13.016 269.955 13.016 269.956 13.016C269.956 13.016 269.957 13.016 269.958 13.016C269.959 13.016 269.96 13.016 269.961 13.016C269.962 13.016 269.962 13.016 269.963 13.016C269.964 13.016 269.965 13.016 269.966 13.016C269.967 13.016 269.968 13.016 269.968 13.016C269.969 13.016 269.97 13.016 269.971 13.016C269.972 13.016 269.973 13.016 269.974 13.016C269.974 13.016 269.975 13.016 269.976 13.016C269.977 13.016 269.978 13.016 269.979 13.016C269.979 13.016 269.98 13.016 269.981 13.016C269.982 13.016 269.983 13.016 269.984 13.016C269.985 13.016 269.985 13.016 269.986 13.016C269.987 13.016 269.988 13.016 269.989 13.016C269.99 13.016 269.991 13.016 269.991 13.016C269.992 13.016 269.993 13.016 269.994 13.016C269.995 13.016 269.996 13.016 269.996 13.016C269.997 13.016 269.998 13.016 269.999 13.016C270 13.016 270.001 13.016 270.002 13.016C270.002 13.016 270.003 13.016 270.004 13.016C270.005 13.016 270.006 13.016 270.007 13.016C270.007 13.016 270.008 13.016 270.009 13.016C270.01 13.016 270.011 13.016 270.012 13.016C270.013 13.016 270.013 13.016 270.014 13.016C270.015 13.016 270.016 13.016 270.017 13.016C270.018 13.016 270.018 13.016 270.019 13.016C270.02 13.016 270.021 13.016 270.022 13.016C270.023 13.016 270.023 13.016 270.024 13.016C270.025 13.016 270.026 13.016 270.027 13.016C270.028 13.016 270.028 13.016 270.029 13.016C270.03 13.016 270.031 13.016 270.032 13.016C270.033 13.016 270.033 13.016 270.034 13.016C270.035 13.016 270.036 13.016 270.037 13.016C270.038 13.016 270.038 13.016 270.039 13.016C270.04 13.016 270.041 13.016 270.042 13.016C270.043 13.016 270.043 13.016 270.044 13.016C270.045 13.016 270.046 13.016 270.047 13.016C270.048 13.016 270.048 13.016 270.049 13.016C270.05 13.016 270.051 13.016 270.052 13.016C270.053 13.016 270.053 13.016 270.054 13.016C270.055 13.016 270.056 13.016 270.057 13.016C270.058 13.016 270.058 13.016 270.059 13.016C270.06 13.016 270.061 13.016 270.062 13.016C270.062 13.016 270.063 13.016 270.064 13.016C270.065 13.016 270.066 13.016 270.067 13.016C270.067 13.016 270.068 13.016 270.069 13.016C270.07 13.016 270.071 13.016 270.072 13.016C270.072 13.016 270.073 13.016 270.074 13.016C270.075 13.016 270.076 13.016 270.077 13.016C270.077 13.016 270.078 13.016 270.079 13.016C270.08 13.016 270.081 13.016 270.081 13.016C270.082 13.016 270.083 13.016 270.084 13.016C270.085 13.016 270.086 13.016 270.086 13.016C270.087 13.016 270.088 13.016 270.089 13.016C270.09 13.016 270.09 13.016 270.091 13.016C270.092 13.016 270.093 13.016 270.094 13.016C270.094 13.016 270.095 13.016 270.096 13.016C270.097 13.016 270.098 13.016 270.099 13.016C270.099 13.016 270.1 13.016 270.101 13.016C270.102 13.016 270.103 13.016 270.103 13.016C270.104 13.016 270.105 13.016 270.106 13.016C270.107 13.016 270.107 13.016 270.108 13.016C270.109 13.016 270.11 13.016 270.111 13.016C270.112 13.016 270.112 13.016 270.113 13.016C270.114 13.016 270.115 13.016 270.116 13.016C270.116 13.016 270.117 13.016 270.118 13.016C270.119 13.016 270.12 13.016 270.12 13.016C270.121 13.016 270.122 13.016 270.123 13.016C270.124 13.016 270.124 13.016 270.125 13.016C270.126 13.016 270.127 13.016 270.128 13.016C270.128 13.016 270.129 13.016 270.13 13.016C270.131 13.016 270.132 13.016 270.132 13.016C270.133 13.016 270.134 13.016 270.135 13.016C270.136 13.016 270.136 13.016 270.137 13.016C270.138 13.016 270.139 13.016 270.14 13.016C270.141 13.016 270.141 13.016 270.142 13.016C270.143 13.016 270.144 13.016 270.144 13.016C270.145 13.016 270.146 13.016 270.147 13.016C270.148 13.016 270.148 13.016 270.149 13.016C270.15 13.016 270.151 13.016 270.152 13.016C270.152 13.016 270.153 13.016 270.154 13.016C270.155 13.016 270.156 13.016 270.156 13.016C270.157 13.016 270.158 13.016 270.159 13.016C270.16 13.016 270.16 13.016 270.161 13.016C270.162 13.016 270.163 13.016 270.164 13.016C270.164 13.016 270.165 13.016 270.166 13.016C270.167 13.016 270.168 13.016 270.168 13.016C270.169 13.016 270.17 13.016 270.171 13.016C270.171 13.016 270.172 13.016 270.173 13.016C270.174 13.016 270.175 13.016 270.175 13.016C270.176 13.016 270.177 13.016 270.178 13.016C270.179 13.016 270.179 13.016 270.18 13.016C270.181 13.016 270.182 13.016 270.182 13.016C270.183 13.016 270.184 13.016 270.185 13.016C270.186 13.016 270.186 13.016 270.187 13.016C270.188 13.016 270.189 13.016 270.19 13.016C270.19 13.016 270.191 13.016 270.192 13.016C270.193 13.016 270.193 13.016 270.194 13.016C270.195 13.016 270.196 13.016 270.197 13.016C270.197 13.016 270.198 13.016 270.199 13.016C270.2 13.016 270.2 13.016 270.201 13.016C270.202 13.016 270.203 13.016 270.204 13.016C270.204 13.016 270.205 13.016 270.206 13.016C270.207 13.016 270.207 13.016 270.208 13.016C270.209 13.016 270.21 13.016 270.211 13.016C270.211 13.016 270.212 13.016 270.213 13.016C270.214 13.016 270.214 13.016 270.215 13.016C270.216 13.016 270.217 13.016 270.217 13.016C270.218 13.016 270.219 13.016 270.22 13.016C270.221 13.016 270.221 13.016 270.222 13.016C270.223 13.016 270.224 13.016 270.224 13.016C270.225 13.016 270.226 13.016 270.227 13.016C270.228 13.016 270.228 13.016 270.229 13.016C270.23 13.016 270.231 13.016 270.231 13.016C270.232 13.016 270.233 13.016 270.234 13.016C270.234 13.016 270.235 13.016 270.236 13.016C270.237 13.016 270.238 13.016 270.238 13.016C270.239 13.016 270.24 13.016 270.241 13.016C270.241 13.016 270.242 13.016 270.243 13.016C270.244 13.016 270.244 13.016 270.245 13.016C270.246 13.016 270.247 13.016 270.247 13.016C270.248 13.016 270.249 13.016 270.25 13.016C270.25 13.016 270.251 13.016 270.252 13.016C270.253 13.016 270.254 13.016 270.254 13.016C270.255 13.016 270.256 13.016 270.257 13.016C270.257 13.016 270.258 13.016 270.259 13.016C270.26 13.016 270.26 13.016 270.261 13.016C270.262 13.016 270.263 13.016 270.263 13.016C270.264 13.016 270.265 13.016 270.266 13.016C270.266 13.016 270.267 13.016 270.268 13.016C270.269 13.016 270.269 13.016 270.27 13.016C270.271 13.016 270.272 13.016 270.272 13.016C270.273 13.016 270.274 13.016 270.275 13.016C270.275 13.016 270.276 13.016 270.277 13.016C270.278 13.016 270.278 13.016 270.279 13.016C270.28 13.016 270.281 13.016 270.281 13.016C270.282 13.016 270.283 13.016 270.284 13.016C270.284 13.016 270.285 13.016 270.286 13.016C270.287 13.016 270.287 13.016 270.288 13.016C270.289 13.016 270.29 13.016 270.29 13.016C270.291 13.016 270.292 13.016 270.293 13.016C270.293 13.016 270.294 13.016 270.295 13.016C270.296 13.016 270.296 13.016 270.297 13.016C270.298 13.016 270.299 13.016 270.299 13.016C270.3 13.016 270.301 13.016 270.302 13.016C270.302 13.016 270.303 13.016 270.304 13.016C270.305 13.016 270.305 13.016 270.306 13.016C270.307 13.016 270.308 13.016 270.308 13.016C270.309 13.016 270.31 13.016 270.31 13.016C270.311 13.016 270.312 13.016 270.313 13.016C270.313 13.016 270.314 13.016 270.315 13.016C270.316 13.016 270.316 13.016 270.317 13.016C270.318 13.016 270.319 13.016 270.319 13.016C270.32 13.016 270.321 13.016 270.322 13.016C270.322 13.016 270.323 13.016 270.324 13.016C270.324 13.016 270.325 13.016 270.326 13.016C270.327 13.016 270.327 13.016 270.328 13.016C270.329 13.016 270.33 13.016 270.33 13.016C270.331 13.016 270.332 13.016 270.333 13.016C270.333 13.016 270.334 13.016 270.335 13.016C270.335 13.016 270.336 13.016 270.337 13.016C270.338 13.016 270.338 13.016 270.339 13.016C270.34 13.016 270.341 13.016 270.341 13.016C270.342 13.016 270.343 13.016 270.343 13.016C270.344 13.016 270.345 13.016 270.346 13.016C270.346 13.016 270.347 13.016 270.348 13.016C270.349 13.016 270.349 13.016 270.35 13.016C270.351 13.016 270.351 13.016 270.352 13.016C270.353 13.016 270.354 13.016 270.354 13.016C270.355 13.016 270.356 13.016 270.357 13.016C270.357 13.016 270.358 13.016 270.359 13.016C270.359 13.016 270.36 13.016 270.361 13.016C270.362 13.016 270.362 13.016 270.363 13.016C270.364 13.016 270.364 13.016 270.365 13.016C270.366 13.016 270.367 13.016 270.367 13.016C270.368 13.016 270.369 13.016 270.369 13.016C270.37 13.016 270.371 13.016 270.372 13.016C270.372 13.016 270.373 13.016 270.374 13.016C270.374 13.016 270.375 13.016 270.376 13.016C270.377 13.016 270.377 13.016 270.378 13.016C270.379 13.016 270.379 13.016 270.38 13.016C270.381 13.016 270.382 13.016 270.382 13.016C270.383 13.016 270.384 13.016 270.384 13.016C270.385 13.016 270.386 13.016 270.387 13.016C270.387 13.016 270.388 13.016 270.389 13.016C270.389 13.016 270.39 13.016 270.391 13.016C270.392 13.016 270.392 13.016 270.393 13.016C270.394 13.016 270.394 13.016 270.395 13.016C270.396 13.016 270.397 13.016 270.397 13.016C270.398 13.016 270.399 13.016 270.399 13.016C270.4 13.016 270.401 13.016 270.401 13.016C270.402 13.016 270.403 13.016 270.404 13.016C270.404 13.016 270.405 13.016 270.406 13.016C270.406 13.016 270.407 13.016 270.408 13.016C270.409 13.016 270.409 13.016 270.41 13.016C270.411 13.016 270.411 13.016 270.412 13.016C270.413 13.016 270.413 13.016 270.414 13.016C270.415 13.016 270.416 13.016 270.416 13.016C270.417 13.016 270.418 13.016 270.418 13.016C270.419 13.016 270.42 13.016 270.42 13.016C270.421 13.016 270.422 13.016 270.423 13.016C270.423 13.016 270.424 13.016 270.425 13.016C270.425 13.016 270.426 13.016 270.427 13.016C270.427 13.016 270.428 13.016 270.429 13.016C270.429 13.016 270.43 13.016 270.431 13.016C270.432 13.016 270.432 13.016 270.433 13.016C270.434 13.016 270.434 13.016 270.435 13.016C270.436 13.016 270.436 13.016 270.437 13.016C270.438 13.016 270.438 13.016 270.439 13.016C270.44 13.016 270.441 13.016 270.441 13.016C270.442 13.016 270.443 13.016 270.443 13.016C270.444 13.016 270.445 13.016 270.445 13.016C270.446 13.016 270.447 13.016 270.447 13.016C270.448 13.016 270.449 13.016 270.449 13.016C270.45 13.016 270.451 13.016 270.452 13.016C270.452 13.016 270.453 13.016 270.454 13.016C270.454 13.016 270.455 13.016 270.456 13.016C270.456 13.016 270.457 13.016 270.458 13.016C270.458 13.016 270.459 13.016 270.46 13.016C270.46 13.016 270.461 13.016 270.462 13.016C270.462 13.016 270.463 13.016 270.464 13.016C270.465 13.016 270.465 13.016 270.466 13.016C270.467 13.016 270.467 13.016 270.468 13.016C270.469 13.016 270.469 13.016 270.47 13.016C270.471 13.016 270.471 13.016 270.472 13.016C270.473 13.016 270.473 13.016 270.474 13.016C270.475 13.016 270.475 13.016 270.476 13.016C270.477 13.016 270.477 13.016 270.478 13.016C270.479 13.016 270.479 13.016 270.48 13.016C270.481 13.016 270.481 13.016 270.482 13.016C270.483 13.016 270.483 13.016 270.484 13.016C270.485 13.016 270.485 13.016 270.486 13.016C270.487 13.016 270.487 13.016 270.488 13.016C270.489 13.016 270.49 13.016 270.49 13.016C270.491 13.016 270.492 13.016 270.492 13.016C270.493 13.016 270.494 13.016 270.494 13.016C270.495 13.016 270.496 13.016 270.496 13.016C270.497 13.016 270.498 13.016 270.498 13.016C270.499 13.016 270.5 13.016 270.5 13.016C270.501 13.016 270.502 13.016 270.502 13.016C270.503 13.016 270.504 13.016 270.504 13.016C270.505 13.016 270.506 13.016 270.506 13.016C270.507 13.016 270.508 13.016 270.508 13.016C270.509 13.016 270.509 13.016 270.51 13.016C270.511 13.016 270.511 13.016 270.512 13.016C270.513 13.016 270.513 13.016 270.514 13.016C270.515 13.016 270.515 13.016 270.516 13.016C270.517 13.016 270.517 13.016 270.518 13.016C270.519 13.016 270.519 13.016 270.52 13.016C270.521 13.016 270.521 13.016 270.522 13.016C270.523 13.016 270.523 13.016 270.524 13.016C270.525 13.016 270.525 13.016 270.526 13.016C270.527 13.016 270.527 13.016 270.528 13.016C270.529 13.016 270.529 13.016 270.53 13.016C270.531 13.016 270.531 13.016 270.532 13.016C270.533 13.016 270.533 13.016 270.534 13.016C270.534 13.016 270.535 13.016 270.536 13.016C270.536 13.016 270.537 13.016 270.538 13.016C270.538 13.016 270.539 13.016 270.54 13.016C270.54 13.016 270.541 13.016 270.542 13.016C270.542 13.016 270.543 13.016 270.544 13.016C270.544 13.016 270.545 13.016 270.546 13.016C270.546 13.016 270.547 13.016 270.547 13.016C270.548 13.016 270.549 13.016 270.549 13.016C270.55 13.016 270.551 13.016 270.551 13.016C270.552 13.016 270.553 13.016 270.553 13.016C270.554 13.016 270.555 13.016 270.555 13.016C270.556 13.016 270.556 13.016 270.557 13.016C270.558 13.016 270.558 13.016 270.559 13.016C270.56 13.016 270.56 13.016 270.561 13.016C270.562 13.016 270.562 13.016 270.563 13.016C270.564 13.016 270.564 13.016 270.565 13.016C270.565 13.016 270.566 13.016 270.567 13.016C270.567 13.016 270.568 13.016 270.569 13.016C270.569 13.016 270.57 13.016 270.571 13.016C270.571 13.016 270.572 13.016 270.572 13.016C270.573 13.016 270.574 13.016 270.574 13.016C270.575 13.016 270.576 13.016 270.576 13.016C270.577 13.016 270.578 13.016 270.578 13.016C270.579 13.016 270.579 13.016 270.58 13.016C270.581 13.016 270.581 13.016 270.582 13.016C270.583 13.016 270.583 13.016 270.584 13.016C270.585 13.016 270.585 13.016 270.586 13.016C270.586 13.016 270.587 13.016 270.588 13.016C270.588 13.016 270.589 13.016 270.59 13.016C270.59 13.016 270.591 13.016 270.591 13.016C270.592 13.016 270.593 13.016 270.593 13.016C270.594 13.016 270.595 13.016 270.595 13.016C270.596 13.016 270.596 13.016 270.597 13.016C270.598 13.016 270.598 13.016 270.599 13.016C270.6 13.016 270.6 13.016 270.601 13.016C270.601 13.016 270.602 13.016 270.603 13.016C270.603 13.016 270.604 13.016 270.605 13.016C270.605 13.016 270.606 13.016 270.606 13.016C270.607 13.016 270.608 13.016 270.608 13.016C270.609 13.016 270.609 13.016 270.61 13.016C270.611 13.016 270.611 13.016 270.612 13.016C270.613 13.016 270.613 13.016 270.614 13.016C270.614 13.016 270.615 13.016 270.616 13.016C270.616 13.016 270.617 13.016 270.618 13.016C270.618 13.016 270.619 13.016 270.619 13.016C270.62 13.016 270.621 13.016 270.621 13.016C270.622 13.016 270.622 13.016 270.623 13.016C270.624 13.016 270.624 13.016 270.625 13.016C270.626 13.016 270.626 13.016 270.627 13.016C270.627 13.016 270.628 13.016 270.629 13.016C270.629 13.016 270.63 13.016 270.63 13.016C270.631 13.016 270.632 13.016 270.632 13.016C270.633 13.016 270.633 13.016 270.634 13.016C270.635 13.016 270.635 13.016 270.636 13.016C270.637 13.016 270.637 13.016 270.638 13.016C270.638 13.016 270.639 13.016 270.64 13.016C270.64 13.016 270.641 13.016 270.641 13.016C270.642 13.016 270.643 13.016 270.643 13.016C270.644 13.016 270.644 13.016 270.645 13.016C270.646 13.016 270.646 13.016 270.647 13.016C270.647 13.016 270.648 13.016 270.649 13.016C270.649 13.016 270.65 13.016 270.65 13.016C270.651 13.016 270.652 13.016 270.652 13.016C270.653 13.016 270.653 13.016 270.654 13.016C270.655 13.016 270.655 13.016 270.656 13.016C270.656 13.016 270.657 13.016 270.658 13.016C270.658 13.016 270.659 13.016 270.659 13.016C270.66 13.016 270.661 13.016 270.661 13.016C270.662 13.016 270.662 13.016 270.663 13.016C270.664 13.016 270.664 13.016 270.665 13.016C270.665 13.016 270.666 13.016 270.667 13.016C270.667 13.016 270.668 13.016 270.668 13.016C270.669 13.016 270.67 13.016 270.67 13.016C270.671 13.016 270.671 13.016 270.672 13.016C270.673 13.016 270.673 13.016 270.674 13.016C270.674 13.016 270.675 13.016 270.675 13.016C270.676 13.016 270.677 13.016 270.677 13.016C270.678 13.016 270.678 13.016 270.679 13.016C270.68 13.016 270.68 13.016 270.681 13.016C270.681 13.016 270.682 13.016 270.683 13.016C270.683 13.016 270.684 13.016 270.684 13.016C270.685 13.016 270.685 13.016 270.686 13.016C270.687 13.016 270.687 13.016 270.688 13.016C270.688 13.016 270.689 13.016 270.69 13.016C270.69 13.016 270.691 13.016 270.691 13.016C270.692 13.016 270.692 13.016 270.693 13.016C270.694 13.016 270.694 13.016 270.695 13.016C270.695 13.016 270.696 13.016 270.697 13.016C270.697 13.016 270.698 13.016 270.698 13.016C270.699 13.016 270.699 13.016 270.7 13.016C270.701 13.016 270.701 13.016 270.702 13.016C270.702 13.016 270.703 13.016 270.703 13.016C270.704 13.016 270.705 13.016 270.705 13.016C270.706 13.016 270.706 13.016 270.707 13.016C270.708 13.016 270.708 13.016 270.709 13.016C270.709 13.016 270.71 13.016 270.71 13.016C270.711 13.016 270.712 13.016 270.712 13.016C270.713 13.016 270.713 13.016 270.714 13.016C270.714 13.016 270.715 13.016 270.716 13.016C270.716 13.016 270.717 13.016 270.717 13.016C270.718 13.016 270.718 13.016 270.719 13.016C270.72 13.016 270.72 13.016 270.721 13.016C270.721 13.016 270.722 13.016 270.722 13.016C270.723 13.016 270.724 13.016 270.724 13.016C270.725 13.016 270.725 13.016 270.726 13.016C270.726 13.016 270.727 13.016 270.727 13.016C270.728 13.016 270.729 13.016 270.729 13.016C270.73 13.016 270.73 13.016 270.731 13.016C270.731 13.016 270.732 13.016 270.733 13.016C270.733 13.016 270.734 13.016 270.734 13.016C270.735 13.016 270.735 13.016 270.736 13.016C270.737 13.016 270.737 13.016 270.738 13.016C270.738 13.016 270.739 13.016 270.739 13.016C270.74 13.016 270.74 13.016 270.741 13.016C270.742 13.016 270.742 13.016 270.743 13.016C270.743 13.016 270.744 13.016 270.744 13.016C270.745 13.016 270.745 13.016 270.746 13.016C270.747 13.016 270.747 13.016 270.748 13.016C270.748 13.016 270.749 13.016 270.749 13.016C270.75 13.016 270.75 13.016 270.751 13.016C270.752 13.016 270.752 13.016 270.753 13.016C270.753 13.016 270.754 13.016 270.754 13.016C270.755 13.016 270.755 13.016 270.756 13.016C270.757 13.016 270.757 13.016 270.758 13.016C270.758 13.016 270.759 13.016 270.759 13.016C270.76 13.016 270.76 13.016 270.761 13.016C270.762 13.016 270.762 13.016 270.763 13.016C270.763 13.016 270.764 13.016 270.764 13.016C270.765 13.016 270.765 13.016 270.766 13.016C270.766 13.016 270.767 13.016 270.768 13.016C270.768 13.016 270.769 13.016 270.769 13.016C270.77 13.016 270.77 13.016 270.771 13.016C270.771 13.016 270.772 13.016 270.772 13.016C270.773 13.016 270.774 13.016 270.774 13.016C270.775 13.016 270.775 13.016 270.776 13.016C270.776 13.016 270.777 13.016 270.777 13.016C270.778 13.016 270.778 13.016 270.779 13.016C270.779 13.016 270.78 13.016 270.781 13.016C270.781 13.016 270.782 13.016 270.782 13.016C270.783 13.016 270.783 13.016 270.784 13.016C270.784 13.016 270.785 13.016 270.785 13.016C270.786 13.016 270.786 13.016 270.787 13.016C270.788 13.016 270.788 13.016 270.789 13.016C270.789 13.016 270.79 13.016 270.79 13.016C270.791 13.016 270.791 13.016 270.792 13.016C270.792 13.016 270.793 13.016 270.793 13.016C270.794 13.016 270.795 13.016 270.795 13.016C270.796 13.016 270.796 13.016 270.797 13.016C270.797 13.016 270.798 13.016 270.798 13.016C270.799 13.016 270.799 13.016 270.8 13.016C270.8 13.016 270.801 13.016 270.801 13.016C270.802 13.016 270.802 13.016 270.803 13.016C270.804 13.016 270.804 13.016 270.805 13.016C270.805 13.016 270.806 13.016 270.806 13.016C270.807 13.016 270.807 13.016 270.808 13.016C270.808 13.016 270.809 13.016 270.809 13.016C270.81 13.016 270.81 13.016 270.811 13.016C270.811 13.016 270.812 13.016 270.812 13.016C270.813 13.016 270.814 13.016 270.814 13.016C270.815 13.016 270.815 13.016 270.816 13.016C270.816 13.016 270.817 13.016 270.817 13.016C270.818 13.016 270.818 13.016 270.819 13.016C270.819 13.016 270.82 13.016 270.82 13.016C270.821 13.016 270.821 13.016 270.822 13.016C270.822 13.016 270.823 13.016 270.823 13.016C270.824 13.016 270.824 13.016 270.825 13.016C270.825 13.016 270.826 13.016 270.827 13.016C270.827 13.016 270.828 13.016 270.828 13.016C270.829 13.016 270.829 13.016 270.83 13.016C270.83 13.016 270.831 13.016 270.831 13.016C270.832 13.016 270.832 13.016 270.833 13.016C270.833 13.016 270.834 13.016 270.834 13.016C270.835 13.016 270.835 13.016 270.836 13.016C270.836 13.016 270.837 13.016 270.837 13.016C270.838 13.016 270.838 13.016 270.839 13.016C270.839 13.016 270.84 13.016 270.84 13.016C270.841 13.016 270.841 13.016 270.842 13.016C270.842 13.016 270.843 13.016 270.843 13.016C270.844 13.016 270.844 13.016 270.845 13.016C270.845 13.016 270.846 13.016 270.846 13.016C270.847 13.016 270.847 13.016 270.848 13.016C270.848 13.016 270.849 13.016 270.849 13.016C270.85 13.016 270.85 13.016 270.851 13.016C270.851 13.016 270.852 13.016 270.852 13.016C270.853 13.016 270.853 13.016 270.854 13.016C270.854 13.016 270.855 13.016 270.855 13.016C270.856 13.016 270.857 13.016 270.857 13.016V11.016C270.857 11.016 270.856 11.016 270.855 11.016C270.855 11.016 270.854 11.016 270.854 11.016C270.853 11.016 270.853 11.016 270.852 11.016C270.852 11.016 270.851 11.016 270.851 11.016C270.85 11.016 270.85 11.016 270.849 11.016C270.849 11.016 270.848 11.016 270.848 11.016C270.847 11.016 270.847 11.016 270.846 11.016C270.846 11.016 270.845 11.016 270.845 11.016C270.844 11.016 270.844 11.016 270.843 11.016C270.843 11.016 270.842 11.016 270.842 11.016C270.841 11.016 270.841 11.016 270.84 11.016C270.84 11.016 270.839 11.016 270.839 11.016C270.838 11.016 270.838 11.016 270.837 11.016C270.837 11.016 270.836 11.016 270.836 11.016C270.835 11.016 270.835 11.016 270.834 11.016C270.834 11.016 270.833 11.016 270.833 11.016C270.832 11.016 270.832 11.016 270.831 11.016C270.831 11.016 270.83 11.016 270.83 11.016C270.829 11.016 270.829 11.016 270.828 11.016C270.828 11.016 270.827 11.016 270.827 11.016C270.826 11.016 270.825 11.016 270.825 11.016C270.824 11.016 270.824 11.016 270.823 11.016C270.823 11.016 270.822 11.016 270.822 11.016C270.821 11.016 270.821 11.016 270.82 11.016C270.82 11.016 270.819 11.016 270.819 11.016C270.818 11.016 270.818 11.016 270.817 11.016C270.817 11.016 270.816 11.016 270.816 11.016C270.815 11.016 270.815 11.016 270.814 11.016C270.814 11.016 270.813 11.016 270.812 11.016C270.812 11.016 270.811 11.016 270.811 11.016C270.81 11.016 270.81 11.016 270.809 11.016C270.809 11.016 270.808 11.016 270.808 11.016C270.807 11.016 270.807 11.016 270.806 11.016C270.806 11.016 270.805 11.016 270.805 11.016C270.804 11.016 270.804 11.016 270.803 11.016C270.802 11.016 270.802 11.016 270.801 11.016C270.801 11.016 270.8 11.016 270.8 11.016C270.799 11.016 270.799 11.016 270.798 11.016C270.798 11.016 270.797 11.016 270.797 11.016C270.796 11.016 270.796 11.016 270.795 11.016C270.795 11.016 270.794 11.016 270.793 11.016C270.793 11.016 270.792 11.016 270.792 11.016C270.791 11.016 270.791 11.016 270.79 11.016C270.79 11.016 270.789 11.016 270.789 11.016C270.788 11.016 270.788 11.016 270.787 11.016C270.786 11.016 270.786 11.016 270.785 11.016C270.785 11.016 270.784 11.016 270.784 11.016C270.783 11.016 270.783 11.016 270.782 11.016C270.782 11.016 270.781 11.016 270.781 11.016C270.78 11.016 270.779 11.016 270.779 11.016C270.778 11.016 270.778 11.016 270.777 11.016C270.777 11.016 270.776 11.016 270.776 11.016C270.775 11.016 270.775 11.016 270.774 11.016C270.774 11.016 270.773 11.016 270.772 11.016C270.772 11.016 270.771 11.016 270.771 11.016C270.77 11.016 270.77 11.016 270.769 11.016C270.769 11.016 270.768 11.016 270.768 11.016C270.767 11.016 270.766 11.016 270.766 11.016C270.765 11.016 270.765 11.016 270.764 11.016C270.764 11.016 270.763 11.016 270.763 11.016C270.762 11.016 270.762 11.016 270.761 11.016C270.76 11.016 270.76 11.016 270.759 11.016C270.759 11.016 270.758 11.016 270.758 11.016C270.757 11.016 270.757 11.016 270.756 11.016C270.755 11.016 270.755 11.016 270.754 11.016C270.754 11.016 270.753 11.016 270.753 11.016C270.752 11.016 270.752 11.016 270.751 11.016C270.75 11.016 270.75 11.016 270.749 11.016C270.749 11.016 270.748 11.016 270.748 11.016C270.747 11.016 270.747 11.016 270.746 11.016C270.745 11.016 270.745 11.016 270.744 11.016C270.744 11.016 270.743 11.016 270.743 11.016C270.742 11.016 270.742 11.016 270.741 11.016C270.74 11.016 270.74 11.016 270.739 11.016C270.739 11.016 270.738 11.016 270.738 11.016C270.737 11.016 270.737 11.016 270.736 11.016C270.735 11.016 270.735 11.016 270.734 11.016C270.734 11.016 270.733 11.016 270.733 11.016C270.732 11.016 270.731 11.016 270.731 11.016C270.73 11.016 270.73 11.016 270.729 11.016C270.729 11.016 270.728 11.016 270.727 11.016C270.727 11.016 270.726 11.016 270.726 11.016C270.725 11.016 270.725 11.016 270.724 11.016C270.724 11.016 270.723 11.016 270.722 11.016C270.722 11.016 270.721 11.016 270.721 11.016C270.72 11.016 270.72 11.016 270.719 11.016C270.718 11.016 270.718 11.016 270.717 11.016C270.717 11.016 270.716 11.016 270.716 11.016C270.715 11.016 270.714 11.016 270.714 11.016C270.713 11.016 270.713 11.016 270.712 11.016C270.712 11.016 270.711 11.016 270.71 11.016C270.71 11.016 270.709 11.016 270.709 11.016C270.708 11.016 270.708 11.016 270.707 11.016C270.706 11.016 270.706 11.016 270.705 11.016C270.705 11.016 270.704 11.016 270.703 11.016C270.703 11.016 270.702 11.016 270.702 11.016C270.701 11.016 270.701 11.016 270.7 11.016C270.699 11.016 270.699 11.016 270.698 11.016C270.698 11.016 270.697 11.016 270.697 11.016C270.696 11.016 270.695 11.016 270.695 11.016C270.694 11.016 270.694 11.016 270.693 11.016C270.692 11.016 270.692 11.016 270.691 11.016C270.691 11.016 270.69 11.016 270.69 11.016C270.689 11.016 270.688 11.016 270.688 11.016C270.687 11.016 270.687 11.016 270.686 11.016C270.685 11.016 270.685 11.016 270.684 11.016C270.684 11.016 270.683 11.016 270.683 11.016C270.682 11.016 270.681 11.016 270.681 11.016C270.68 11.016 270.68 11.016 270.679 11.016C270.678 11.016 270.678 11.016 270.677 11.016C270.677 11.016 270.676 11.016 270.675 11.016C270.675 11.016 270.674 11.016 270.674 11.016C270.673 11.016 270.673 11.016 270.672 11.016C270.671 11.016 270.671 11.016 270.67 11.016C270.67 11.016 270.669 11.016 270.668 11.016C270.668 11.016 270.667 11.016 270.667 11.016C270.666 11.016 270.665 11.016 270.665 11.016C270.664 11.016 270.664 11.016 270.663 11.016C270.662 11.016 270.662 11.016 270.661 11.016C270.661 11.016 270.66 11.016 270.659 11.016C270.659 11.016 270.658 11.016 270.658 11.016C270.657 11.016 270.656 11.016 270.656 11.016C270.655 11.016 270.655 11.016 270.654 11.016C270.653 11.016 270.653 11.016 270.652 11.016C270.652 11.016 270.651 11.016 270.65 11.016C270.65 11.016 270.649 11.016 270.649 11.016C270.648 11.016 270.647 11.016 270.647 11.016C270.646 11.016 270.646 11.016 270.645 11.016C270.644 11.016 270.644 11.016 270.643 11.016C270.643 11.016 270.642 11.016 270.641 11.016C270.641 11.016 270.64 11.016 270.64 11.016C270.639 11.016 270.638 11.016 270.638 11.016C270.637 11.016 270.637 11.016 270.636 11.016C270.635 11.016 270.635 11.016 270.634 11.016C270.633 11.016 270.633 11.016 270.632 11.016C270.632 11.016 270.631 11.016 270.63 11.016C270.63 11.016 270.629 11.016 270.629 11.016C270.628 11.016 270.627 11.016 270.627 11.016C270.626 11.016 270.626 11.016 270.625 11.016C270.624 11.016 270.624 11.016 270.623 11.016C270.622 11.016 270.622 11.016 270.621 11.016C270.621 11.016 270.62 11.016 270.619 11.016C270.619 11.016 270.618 11.016 270.618 11.016C270.617 11.016 270.616 11.016 270.616 11.016C270.615 11.016 270.614 11.016 270.614 11.016C270.613 11.016 270.613 11.016 270.612 11.016C270.611 11.016 270.611 11.016 270.61 11.016C270.609 11.016 270.609 11.016 270.608 11.016C270.608 11.016 270.607 11.016 270.606 11.016C270.606 11.016 270.605 11.016 270.605 11.016C270.604 11.016 270.603 11.016 270.603 11.016C270.602 11.016 270.601 11.016 270.601 11.016C270.6 11.016 270.6 11.016 270.599 11.016C270.598 11.016 270.598 11.016 270.597 11.016C270.596 11.016 270.596 11.016 270.595 11.016C270.595 11.016 270.594 11.016 270.593 11.016C270.593 11.016 270.592 11.016 270.591 11.016C270.591 11.016 270.59 11.016 270.59 11.016C270.589 11.016 270.588 11.016 270.588 11.016C270.587 11.016 270.586 11.016 270.586 11.016C270.585 11.016 270.585 11.016 270.584 11.016C270.583 11.016 270.583 11.016 270.582 11.016C270.581 11.016 270.581 11.016 270.58 11.016C270.579 11.016 270.579 11.016 270.578 11.016C270.578 11.016 270.577 11.016 270.576 11.016C270.576 11.016 270.575 11.016 270.574 11.016C270.574 11.016 270.573 11.016 270.572 11.016C270.572 11.016 270.571 11.016 270.571 11.016C270.57 11.016 270.569 11.016 270.569 11.016C270.568 11.016 270.567 11.016 270.567 11.016C270.566 11.016 270.565 11.016 270.565 11.016C270.564 11.016 270.564 11.016 270.563 11.016C270.562 11.016 270.562 11.016 270.561 11.016C270.56 11.016 270.56 11.016 270.559 11.016C270.558 11.016 270.558 11.016 270.557 11.016C270.556 11.016 270.556 11.016 270.555 11.016C270.555 11.016 270.554 11.016 270.553 11.016C270.553 11.016 270.552 11.016 270.551 11.016C270.551 11.016 270.55 11.016 270.549 11.016C270.549 11.016 270.548 11.016 270.547 11.016C270.547 11.016 270.546 11.016 270.546 11.016C270.545 11.016 270.544 11.016 270.544 11.016C270.543 11.016 270.542 11.016 270.542 11.016C270.541 11.016 270.54 11.016 270.54 11.016C270.539 11.016 270.538 11.016 270.538 11.016C270.537 11.016 270.536 11.016 270.536 11.016C270.535 11.016 270.534 11.016 270.534 11.016C270.533 11.016 270.533 11.016 270.532 11.016C270.531 11.016 270.531 11.016 270.53 11.016C270.529 11.016 270.529 11.016 270.528 11.016C270.527 11.016 270.527 11.016 270.526 11.016C270.525 11.016 270.525 11.016 270.524 11.016C270.523 11.016 270.523 11.016 270.522 11.016C270.521 11.016 270.521 11.016 270.52 11.016C270.519 11.016 270.519 11.016 270.518 11.016C270.517 11.016 270.517 11.016 270.516 11.016C270.515 11.016 270.515 11.016 270.514 11.016C270.513 11.016 270.513 11.016 270.512 11.016C270.511 11.016 270.511 11.016 270.51 11.016C270.509 11.016 270.509 11.016 270.508 11.016C270.508 11.016 270.507 11.016 270.506 11.016C270.506 11.016 270.505 11.016 270.504 11.016C270.504 11.016 270.503 11.016 270.502 11.016C270.502 11.016 270.501 11.016 270.5 11.016C270.5 11.016 270.499 11.016 270.498 11.016C270.498 11.016 270.497 11.016 270.496 11.016C270.496 11.016 270.495 11.016 270.494 11.016C270.494 11.016 270.493 11.016 270.492 11.016C270.492 11.016 270.491 11.016 270.49 11.016C270.49 11.016 270.489 11.016 270.488 11.016C270.487 11.016 270.487 11.016 270.486 11.016C270.485 11.016 270.485 11.016 270.484 11.016C270.483 11.016 270.483 11.016 270.482 11.016C270.481 11.016 270.481 11.016 270.48 11.016C270.479 11.016 270.479 11.016 270.478 11.016C270.477 11.016 270.477 11.016 270.476 11.016C270.475 11.016 270.475 11.016 270.474 11.016C270.473 11.016 270.473 11.016 270.472 11.016C270.471 11.016 270.471 11.016 270.47 11.016C270.469 11.016 270.469 11.016 270.468 11.016C270.467 11.016 270.467 11.016 270.466 11.016C270.465 11.016 270.465 11.016 270.464 11.016C270.463 11.016 270.462 11.016 270.462 11.016C270.461 11.016 270.46 11.016 270.46 11.016C270.459 11.016 270.458 11.016 270.458 11.016C270.457 11.016 270.456 11.016 270.456 11.016C270.455 11.016 270.454 11.016 270.454 11.016C270.453 11.016 270.452 11.016 270.452 11.016C270.451 11.016 270.45 11.016 270.449 11.016C270.449 11.016 270.448 11.016 270.447 11.016C270.447 11.016 270.446 11.016 270.445 11.016C270.445 11.016 270.444 11.016 270.443 11.016C270.443 11.016 270.442 11.016 270.441 11.016C270.441 11.016 270.44 11.016 270.439 11.016C270.438 11.016 270.438 11.016 270.437 11.016C270.436 11.016 270.436 11.016 270.435 11.016C270.434 11.016 270.434 11.016 270.433 11.016C270.432 11.016 270.432 11.016 270.431 11.016C270.43 11.016 270.429 11.016 270.429 11.016C270.428 11.016 270.427 11.016 270.427 11.016C270.426 11.016 270.425 11.016 270.425 11.016C270.424 11.016 270.423 11.016 270.423 11.016C270.422 11.016 270.421 11.016 270.42 11.016C270.42 11.016 270.419 11.016 270.418 11.016C270.418 11.016 270.417 11.016 270.416 11.016C270.416 11.016 270.415 11.016 270.414 11.016C270.413 11.016 270.413 11.016 270.412 11.016C270.411 11.016 270.411 11.016 270.41 11.016C270.409 11.016 270.409 11.016 270.408 11.016C270.407 11.016 270.406 11.016 270.406 11.016C270.405 11.016 270.404 11.016 270.404 11.016C270.403 11.016 270.402 11.016 270.401 11.016C270.401 11.016 270.4 11.016 270.399 11.016C270.399 11.016 270.398 11.016 270.397 11.016C270.397 11.016 270.396 11.016 270.395 11.016C270.394 11.016 270.394 11.016 270.393 11.016C270.392 11.016 270.392 11.016 270.391 11.016C270.39 11.016 270.389 11.016 270.389 11.016C270.388 11.016 270.387 11.016 270.387 11.016C270.386 11.016 270.385 11.016 270.384 11.016C270.384 11.016 270.383 11.016 270.382 11.016C270.382 11.016 270.381 11.016 270.38 11.016C270.379 11.016 270.379 11.016 270.378 11.016C270.377 11.016 270.377 11.016 270.376 11.016C270.375 11.016 270.374 11.016 270.374 11.016C270.373 11.016 270.372 11.016 270.372 11.016C270.371 11.016 270.37 11.016 270.369 11.016C270.369 11.016 270.368 11.016 270.367 11.016C270.367 11.016 270.366 11.016 270.365 11.016C270.364 11.016 270.364 11.016 270.363 11.016C270.362 11.016 270.362 11.016 270.361 11.016C270.36 11.016 270.359 11.016 270.359 11.016C270.358 11.016 270.357 11.016 270.357 11.016C270.356 11.016 270.355 11.016 270.354 11.016C270.354 11.016 270.353 11.016 270.352 11.016C270.351 11.016 270.351 11.016 270.35 11.016C270.349 11.016 270.349 11.016 270.348 11.016C270.347 11.016 270.346 11.016 270.346 11.016C270.345 11.016 270.344 11.016 270.343 11.016C270.343 11.016 270.342 11.016 270.341 11.016C270.341 11.016 270.34 11.016 270.339 11.016C270.338 11.016 270.338 11.016 270.337 11.016C270.336 11.016 270.335 11.016 270.335 11.016C270.334 11.016 270.333 11.016 270.333 11.016C270.332 11.016 270.331 11.016 270.33 11.016C270.33 11.016 270.329 11.016 270.328 11.016C270.327 11.016 270.327 11.016 270.326 11.016C270.325 11.016 270.324 11.016 270.324 11.016C270.323 11.016 270.322 11.016 270.322 11.016C270.321 11.016 270.32 11.016 270.319 11.016C270.319 11.016 270.318 11.016 270.317 11.016C270.316 11.016 270.316 11.016 270.315 11.016C270.314 11.016 270.313 11.016 270.313 11.016C270.312 11.016 270.311 11.016 270.31 11.016C270.31 11.016 270.309 11.016 270.308 11.016C270.308 11.016 270.307 11.016 270.306 11.016C270.305 11.016 270.305 11.016 270.304 11.016C270.303 11.016 270.302 11.016 270.302 11.016C270.301 11.016 270.3 11.016 270.299 11.016C270.299 11.016 270.298 11.016 270.297 11.016C270.296 11.016 270.296 11.016 270.295 11.016C270.294 11.016 270.293 11.016 270.293 11.016C270.292 11.016 270.291 11.016 270.29 11.016C270.29 11.016 270.289 11.016 270.288 11.016C270.287 11.016 270.287 11.016 270.286 11.016C270.285 11.016 270.284 11.016 270.284 11.016C270.283 11.016 270.282 11.016 270.281 11.016C270.281 11.016 270.28 11.016 270.279 11.016C270.278 11.016 270.278 11.016 270.277 11.016C270.276 11.016 270.275 11.016 270.275 11.016C270.274 11.016 270.273 11.016 270.272 11.016C270.272 11.016 270.271 11.016 270.27 11.016C270.269 11.016 270.269 11.016 270.268 11.016C270.267 11.016 270.266 11.016 270.266 11.016C270.265 11.016 270.264 11.016 270.263 11.016C270.263 11.016 270.262 11.016 270.261 11.016C270.26 11.016 270.26 11.016 270.259 11.016C270.258 11.016 270.257 11.016 270.257 11.016C270.256 11.016 270.255 11.016 270.254 11.016C270.254 11.016 270.253 11.016 270.252 11.016C270.251 11.016 270.25 11.016 270.25 11.016C270.249 11.016 270.248 11.016 270.247 11.016C270.247 11.016 270.246 11.016 270.245 11.016C270.244 11.016 270.244 11.016 270.243 11.016C270.242 11.016 270.241 11.016 270.241 11.016C270.24 11.016 270.239 11.016 270.238 11.016C270.238 11.016 270.237 11.016 270.236 11.016C270.235 11.016 270.234 11.016 270.234 11.016C270.233 11.016 270.232 11.016 270.231 11.016C270.231 11.016 270.23 11.016 270.229 11.016C270.228 11.016 270.228 11.016 270.227 11.016C270.226 11.016 270.225 11.016 270.224 11.016C270.224 11.016 270.223 11.016 270.222 11.016C270.221 11.016 270.221 11.016 270.22 11.016C270.219 11.016 270.218 11.016 270.217 11.016C270.217 11.016 270.216 11.016 270.215 11.016C270.214 11.016 270.214 11.016 270.213 11.016C270.212 11.016 270.211 11.016 270.211 11.016C270.21 11.016 270.209 11.016 270.208 11.016C270.207 11.016 270.207 11.016 270.206 11.016C270.205 11.016 270.204 11.016 270.204 11.016C270.203 11.016 270.202 11.016 270.201 11.016C270.2 11.016 270.2 11.016 270.199 11.016C270.198 11.016 270.197 11.016 270.197 11.016C270.196 11.016 270.195 11.016 270.194 11.016C270.193 11.016 270.193 11.016 270.192 11.016C270.191 11.016 270.19 11.016 270.19 11.016C270.189 11.016 270.188 11.016 270.187 11.016C270.186 11.016 270.186 11.016 270.185 11.016C270.184 11.016 270.183 11.016 270.182 11.016C270.182 11.016 270.181 11.016 270.18 11.016C270.179 11.016 270.179 11.016 270.178 11.016C270.177 11.016 270.176 11.016 270.175 11.016C270.175 11.016 270.174 11.016 270.173 11.016C270.172 11.016 270.171 11.016 270.171 11.016C270.17 11.016 270.169 11.016 270.168 11.016C270.168 11.016 270.167 11.016 270.166 11.016C270.165 11.016 270.164 11.016 270.164 11.016C270.163 11.016 270.162 11.016 270.161 11.016C270.16 11.016 270.16 11.016 270.159 11.016C270.158 11.016 270.157 11.016 270.156 11.016C270.156 11.016 270.155 11.016 270.154 11.016C270.153 11.016 270.152 11.016 270.152 11.016C270.151 11.016 270.15 11.016 270.149 11.016C270.148 11.016 270.148 11.016 270.147 11.016C270.146 11.016 270.145 11.016 270.144 11.016C270.144 11.016 270.143 11.016 270.142 11.016C270.141 11.016 270.141 11.016 270.14 11.016C270.139 11.016 270.138 11.016 270.137 11.016C270.136 11.016 270.136 11.016 270.135 11.016C270.134 11.016 270.133 11.016 270.132 11.016C270.132 11.016 270.131 11.016 270.13 11.016C270.129 11.016 270.128 11.016 270.128 11.016C270.127 11.016 270.126 11.016 270.125 11.016C270.124 11.016 270.124 11.016 270.123 11.016C270.122 11.016 270.121 11.016 270.12 11.016C270.12 11.016 270.119 11.016 270.118 11.016C270.117 11.016 270.116 11.016 270.116 11.016C270.115 11.016 270.114 11.016 270.113 11.016C270.112 11.016 270.112 11.016 270.111 11.016C270.11 11.016 270.109 11.016 270.108 11.016C270.107 11.016 270.107 11.016 270.106 11.016C270.105 11.016 270.104 11.016 270.103 11.016C270.103 11.016 270.102 11.016 270.101 11.016C270.1 11.016 270.099 11.016 270.099 11.016C270.098 11.016 270.097 11.016 270.096 11.016C270.095 11.016 270.094 11.016 270.094 11.016C270.093 11.016 270.092 11.016 270.091 11.016C270.09 11.016 270.09 11.016 270.089 11.016C270.088 11.016 270.087 11.016 270.086 11.016C270.086 11.016 270.085 11.016 270.084 11.016C270.083 11.016 270.082 11.016 270.081 11.016C270.081 11.016 270.08 11.016 270.079 11.016C270.078 11.016 270.077 11.016 270.077 11.016C270.076 11.016 270.075 11.016 270.074 11.016C270.073 11.016 270.072 11.016 270.072 11.016C270.071 11.016 270.07 11.016 270.069 11.016C270.068 11.016 270.067 11.016 270.067 11.016C270.066 11.016 270.065 11.016 270.064 11.016C270.063 11.016 270.062 11.016 270.062 11.016C270.061 11.016 270.06 11.016 270.059 11.016C270.058 11.016 270.058 11.016 270.057 11.016C270.056 11.016 270.055 11.016 270.054 11.016C270.053 11.016 270.053 11.016 270.052 11.016C270.051 11.016 270.05 11.016 270.049 11.016C270.048 11.016 270.048 11.016 270.047 11.016C270.046 11.016 270.045 11.016 270.044 11.016C270.043 11.016 270.043 11.016 270.042 11.016C270.041 11.016 270.04 11.016 270.039 11.016C270.038 11.016 270.038 11.016 270.037 11.016C270.036 11.016 270.035 11.016 270.034 11.016C270.033 11.016 270.033 11.016 270.032 11.016C270.031 11.016 270.03 11.016 270.029 11.016C270.028 11.016 270.028 11.016 270.027 11.016C270.026 11.016 270.025 11.016 270.024 11.016C270.023 11.016 270.023 11.016 270.022 11.016C270.021 11.016 270.02 11.016 270.019 11.016C270.018 11.016 270.018 11.016 270.017 11.016C270.016 11.016 270.015 11.016 270.014 11.016C270.013 11.016 270.013 11.016 270.012 11.016C270.011 11.016 270.01 11.016 270.009 11.016C270.008 11.016 270.007 11.016 270.007 11.016C270.006 11.016 270.005 11.016 270.004 11.016C270.003 11.016 270.002 11.016 270.002 11.016C270.001 11.016 270 11.016 269.999 11.016C269.998 11.016 269.997 11.016 269.996 11.016C269.996 11.016 269.995 11.016 269.994 11.016C269.993 11.016 269.992 11.016 269.991 11.016C269.991 11.016 269.99 11.016 269.989 11.016C269.988 11.016 269.987 11.016 269.986 11.016C269.985 11.016 269.985 11.016 269.984 11.016C269.983 11.016 269.982 11.016 269.981 11.016C269.98 11.016 269.979 11.016 269.979 11.016C269.978 11.016 269.977 11.016 269.976 11.016C269.975 11.016 269.974 11.016 269.974 11.016C269.973 11.016 269.972 11.016 269.971 11.016C269.97 11.016 269.969 11.016 269.968 11.016C269.968 11.016 269.967 11.016 269.966 11.016C269.965 11.016 269.964 11.016 269.963 11.016C269.962 11.016 269.962 11.016 269.961 11.016C269.96 11.016 269.959 11.016 269.958 11.016C269.957 11.016 269.956 11.016 269.956 11.016C269.955 11.016 269.954 11.016 269.953 11.016C269.952 11.016 269.951 11.016 269.95 11.016C269.949 11.016 269.949 11.016 269.948 11.016C269.947 11.016 269.946 11.016 269.945 11.016C269.944 11.016 269.943 11.016 269.943 11.016C269.942 11.016 269.941 11.016 269.94 11.016C269.939 11.016 269.938 11.016 269.937 11.016C269.937 11.016 269.936 11.016 269.935 11.016C269.934 11.016 269.933 11.016 269.932 11.016C269.931 11.016 269.93 11.016 269.93 11.016C269.929 11.016 269.928 11.016 269.927 11.016C269.926 11.016 269.925 11.016 269.924 11.016C269.924 11.016 269.923 11.016 269.922 11.016C269.921 11.016 269.92 11.016 269.919 11.016C269.918 11.016 269.917 11.016 269.917 11.016C269.916 11.016 269.915 11.016 269.914 11.016C269.913 11.016 269.912 11.016 269.911 11.016C269.91 11.016 269.91 11.016 269.909 11.016C269.908 11.016 269.907 11.016 269.906 11.016C269.905 11.016 269.904 11.016 269.903 11.016C269.903 11.016 269.902 11.016 269.901 11.016C269.9 11.016 269.899 11.016 269.898 11.016C269.897 11.016 269.896 11.016 269.896 11.016C269.895 11.016 269.894 11.016 269.893 11.016C269.892 11.016 269.891 11.016 269.89 11.016C269.889 11.016 269.889 11.016 269.888 11.016C269.887 11.016 269.886 11.016 269.885 11.016C269.884 11.016 269.883 11.016 269.882 11.016C269.881 11.016 269.881 11.016 269.88 11.016C269.879 11.016 269.878 11.016 269.877 11.016C269.876 11.016 269.875 11.016 269.874 11.016C269.874 11.016 269.873 11.016 269.872 11.016C269.871 11.016 269.87 11.016 269.869 11.016C269.868 11.016 269.867 11.016 269.866 11.016C269.866 11.016 269.865 11.016 269.864 11.016C269.863 11.016 269.862 11.016 269.861 11.016C269.86 11.016 269.859 11.016 269.858 11.016C269.858 11.016 269.857 11.016 269.856 11.016C269.855 11.016 269.854 11.016 269.853 11.016C269.852 11.016 269.851 11.016 269.85 11.016C269.85 11.016 269.849 11.016 269.848 11.016C269.847 11.016 269.846 11.016 269.845 11.016C269.844 11.016 269.843 11.016 269.842 11.016C269.841 11.016 269.841 11.016 269.84 11.016C269.839 11.016 269.838 11.016 269.837 11.016C269.836 11.016 269.835 11.016 269.834 11.016C269.833 11.016 269.832 11.016 269.832 11.016C269.831 11.016 269.83 11.016 269.829 11.016C269.828 11.016 269.827 11.016 269.826 11.016C269.825 11.016 269.824 11.016 269.824 11.016C269.823 11.016 269.822 11.016 269.821 11.016C269.82 11.016 269.819 11.016 269.818 11.016C269.817 11.016 269.816 11.016 269.815 11.016C269.814 11.016 269.814 11.016 269.813 11.016C269.812 11.016 269.811 11.016 269.81 11.016C269.809 11.016 269.808 11.016 269.807 11.016C269.806 11.016 269.805 11.016 269.805 11.016C269.804 11.016 269.803 11.016 269.802 11.016C269.801 11.016 269.8 11.016 269.799 11.016C269.798 11.016 269.797 11.016 269.796 11.016C269.795 11.016 269.795 11.016 269.794 11.016C269.793 11.016 269.792 11.016 269.791 11.016C269.79 11.016 269.789 11.016 269.788 11.016C269.787 11.016 269.786 11.016 269.785 11.016C269.785 11.016 269.784 11.016 269.783 11.016C269.782 11.016 269.781 11.016 269.78 11.016C269.779 11.016 269.778 11.016 269.777 11.016C269.776 11.016 269.775 11.016 269.775 11.016C269.774 11.016 269.773 11.016 269.772 11.016C269.771 11.016 269.77 11.016 269.769 11.016V13.016ZM270.857 13.016C271.065 13.016 271.19 13.034 271.254 13.0501L271.74 11.1099C271.463 11.0406 271.161 11.016 270.857 11.016V13.016ZM270.497 12.08V19.888H272.497V12.08H270.497ZM276.983 52.528L277.2 51.5518L275.983 51.2814V52.528H276.983ZM279.095 52.976L278.899 53.9566L278.911 53.9589L279.095 52.976ZM282.807 52.528L282.238 51.7058L282.201 51.7312L282.167 51.7598L282.807 52.528ZM284.407 50.352L283.513 49.9048L283.509 49.912L283.505 49.9193L284.407 50.352ZM286.007 46L286.966 46.2833L287.064 45.953L286.937 45.6326L286.007 46ZM272.759 12.464V11.464H271.289L271.829 12.8314L272.759 12.464ZM281.655 12.464L282.595 12.1217L282.355 11.464H281.655V12.464ZM290.679 37.232L289.739 37.5743L290.74 40.3198L291.631 37.5371L290.679 37.232ZM298.615 12.464V11.464H297.885L297.663 12.1589L298.615 12.464ZM306.807 12.464L307.751 12.7946L308.217 11.464H306.807V12.464ZM292.727 52.656L291.783 52.3254L291.781 52.3317L292.727 52.656ZM290.359 56.688L289.613 56.022L289.601 56.036L289.589 56.0504L290.359 56.688ZM286.455 59.568L286.058 58.6501L286.043 58.6567L286.028 58.6637L286.455 59.568ZM279.223 60.464L279.407 59.4811L279.377 59.4755L279.347 59.4717L279.223 60.464ZM276.983 59.952H275.983V60.6849L276.682 60.9056L276.983 59.952ZM276.766 53.5042C277.54 53.6761 278.251 53.8269 278.899 53.9566L279.291 51.9954C278.659 51.8691 277.962 51.7212 277.2 51.5518L276.766 53.5042ZM278.911 53.9589C279.628 54.0934 280.27 54.168 280.823 54.168V52.168C280.437 52.168 279.927 52.1146 279.279 51.9931L278.911 53.9589ZM280.823 54.168C281.815 54.168 282.719 53.9032 283.447 53.2962L282.167 51.7598C281.871 52.0062 281.452 52.168 280.823 52.168V54.168ZM283.376 53.3502C284.144 52.8184 284.77 51.9057 285.309 50.7847L283.505 49.9193C283.02 50.9317 282.579 51.4696 282.238 51.7058L283.376 53.3502ZM285.301 50.7992C285.852 49.6985 286.405 48.1835 286.966 46.2833L285.048 45.7167C284.5 47.5712 283.986 48.9575 283.513 49.9048L285.301 50.7992ZM286.937 45.6326L273.689 12.0966L271.829 12.8314L285.077 46.3674L286.937 45.6326ZM272.759 13.464H281.655V11.464H272.759V13.464ZM280.715 12.8063L289.739 37.5743L291.619 36.8897L282.595 12.1217L280.715 12.8063ZM291.631 37.5371L299.567 12.7691L297.663 12.1589L289.727 36.9269L291.631 37.5371ZM298.615 13.464H306.807V11.464H298.615V13.464ZM305.863 12.1334L291.783 52.3254L293.671 52.9866L307.751 12.7946L305.863 12.1334ZM291.781 52.3317C291.313 53.6971 290.592 54.9253 289.613 56.022L291.105 57.354C292.259 56.0614 293.117 54.6016 293.673 52.9803L291.781 52.3317ZM289.589 56.0504C288.672 57.1576 287.502 58.0256 286.058 58.6501L286.852 60.4859C288.565 59.7451 289.998 58.693 291.129 57.3256L289.589 56.0504ZM286.028 58.6637C284.642 59.3183 283.063 59.656 281.271 59.656V61.656C283.319 61.656 285.196 61.2684 286.882 60.4723L286.028 58.6637ZM281.271 59.656C280.651 59.656 280.03 59.5979 279.407 59.4811L279.039 61.4469C279.781 61.5861 280.525 61.656 281.271 61.656V59.656ZM279.347 59.4717C278.737 59.3954 278.05 59.2403 277.284 58.9984L276.682 60.9056C277.537 61.1757 278.344 61.3619 279.099 61.4563L279.347 59.4717ZM277.983 59.952V52.528H275.983V59.952H277.983Z" fill="white" mask="url(#path-1-outside-1_135_961)"/>
</svg>
