<svg width="59" height="60" viewBox="0 0 59 60" fill="none" xmlns="http://www.w3.org/2000/svg">
<g clip-path="url(#clip0_740_100)">
<path fill-rule="evenodd" clip-rule="evenodd" d="M29.5 0.0454102C13.2086 0.0454102 0 13.254 0 29.5454C0 45.8368 13.2086 59.0454 29.5 59.0454C45.7914 59.0454 59 45.8368 59 29.5454C59 13.254 45.7914 0.0454102 29.5 0.0454102ZM43.1732 20.1079C42.7308 24.7713 40.8083 36.0919 39.8324 41.3159C39.4194 43.5284 38.6032 44.2684 37.8165 44.3397C36.1031 44.497 34.8026 43.2064 33.1432 42.1198C30.5473 40.4186 29.0796 39.3591 26.5598 37.6972C23.6467 35.7773 25.5347 34.7227 27.1941 32.9994C27.6292 32.547 35.1763 25.6809 35.3238 25.059C35.341 24.9803 35.3607 24.6902 35.1861 24.5378C35.0116 24.3854 34.7584 24.437 34.5765 24.4788C34.3159 24.5378 30.1687 27.2788 22.1324 32.7019C20.9548 33.5107 19.8879 33.904 18.9316 33.8844C17.8795 33.8622 15.8538 33.2895 14.3468 32.7978C12.5006 32.198 11.0305 31.8784 11.1584 30.8606C11.2247 30.3296 11.9549 29.7863 13.3512 29.2307C21.9505 25.4842 27.6857 23.0136 30.5546 21.8189C38.7482 18.4116 40.4494 17.8192 41.5606 17.7995C42.952 17.7798 43.2863 18.9279 43.1732 20.1079Z" fill="black"/>
</g>
<defs>
<clipPath id="clip0_740_100">
<rect width="59" height="59" fill="white" transform="translate(0 0.0454102)"/>
</clipPath>
</defs>
</svg>
