<svg width="29" height="29" viewBox="0 0 29 29" fill="none" xmlns="http://www.w3.org/2000/svg">
<g clip-path="url(#clip0_738_92)">
<path d="M26.9652 2.03483C24.9303 0 21.6545 0 15.1042 0H13.8958C7.34546 0 4.06967 0 2.03483 2.03483C0 4.06967 0 7.34546 0 13.8958V15.1042C0 21.6545 0 24.9291 2.03483 26.9652C4.06967 29.0012 7.34546 29 13.8958 29H15.1042C21.6545 29 24.9291 29 26.9652 26.9652C29 24.9303 29 21.6545 29 15.1042V13.8958C29 7.34546 29 4.06967 26.9652 2.03483ZM23.5661 20.5417H21.4515C20.6456 20.5417 20.4088 19.8988 18.9745 18.4645C17.719 17.255 17.1813 17.0979 16.8683 17.0979C16.4418 17.0979 16.3149 17.2188 16.3149 17.8229V19.7188C16.3149 20.2384 16.1494 20.5417 14.8045 20.5417C12.5642 20.5417 10.1017 19.1811 8.35321 16.6726C5.73113 12.998 5.01458 10.2201 5.01458 9.66063C5.01458 9.34646 5.13542 9.0625 5.73958 9.0625H7.85538C8.3955 9.0625 8.5985 9.29933 8.8015 9.88417C9.83583 12.8965 11.5807 15.5295 12.2972 15.5295C12.5655 15.5295 12.6887 15.405 12.6887 14.7235V11.6097C12.6102 10.1766 11.8477 10.0582 11.8477 9.54825C11.8477 9.31262 12.0495 9.0625 12.3854 9.0625H15.7095C16.1578 9.0625 16.3137 9.30175 16.3137 9.83946V14.0288C16.3137 14.4758 16.5083 14.6329 16.6424 14.6329C16.9118 14.6329 17.1354 14.4758 17.6284 13.9828C19.1521 12.2803 20.2275 9.65942 20.2275 9.65942C20.3628 9.34525 20.6093 9.06129 21.1483 9.06129H23.2628C23.902 9.06129 24.0374 9.38996 23.902 9.83825C23.6326 11.0708 21.0564 14.6994 21.0564 14.6994C20.8317 15.0583 20.7423 15.2371 21.0564 15.6407C21.2812 15.9548 22.0195 16.582 22.5125 17.1644C23.4211 18.1866 24.1063 19.0482 24.2972 19.6427C24.4736 20.2396 24.1703 20.5417 23.5661 20.5417Z" fill="white"/>
</g>
<defs>
<clipPath id="clip0_738_92">
<rect width="29" height="29" fill="white"/>
</clipPath>
</defs>
</svg>
